<?xml version="1.0" encoding="utf-8" standalone="no"?>
<!DOCTYPE svg PUBLIC "-//W3C//DTD SVG 1.1//EN"
  "http://www.w3.org/Graphics/SVG/1.1/DTD/svg11.dtd">
<!-- Created with matplotlib (https://matplotlib.org/) -->
<svg height="432pt" version="1.1" viewBox="0 0 432 432" width="432pt" xmlns="http://www.w3.org/2000/svg" xmlns:xlink="http://www.w3.org/1999/xlink">
 <defs>
  <style type="text/css">
*{stroke-linecap:butt;stroke-linejoin:round;}
  </style>
 </defs>
 <g id="figure_1">
  <g id="patch_1">
   <path d="M 0 432 
L 432 432 
L 432 0 
L 0 0 
z
" style="fill:#ffffff;"/>
  </g>
  <g id="axes_1">
   <g id="patch_2">
    <path d="M 272.046 179.44 
L 414.562941 179.44 
L 414.562941 34.097143 
L 272.046 34.097143 
z
" style="fill:#ffffff;"/>
   </g>
   <g id="PathCollection_1">
    <defs>
     <path d="M 0 3 
C 0.795609 3 1.55874 2.683901 2.12132 2.12132 
C 2.683901 1.55874 3 0.795609 3 0 
C 3 -0.795609 2.683901 -1.55874 2.12132 -2.12132 
C 1.55874 -2.683901 0.795609 -3 0 -3 
C -0.795609 -3 -1.55874 -2.683901 -2.12132 -2.12132 
C -2.683901 -1.55874 -3 -0.795609 -3 0 
C -3 0.795609 -2.683901 1.55874 -2.12132 2.12132 
C -1.55874 2.683901 -0.795609 3 0 3 
z
" id="m77dae0a971" style="stroke:#4c7eb2;stroke-opacity:0.8;"/>
    </defs>
    <g clip-path="url(#p2a4362391e)">
     <use style="fill:#4c7eb2;fill-opacity:0.8;stroke:#4c7eb2;stroke-opacity:0.8;" x="278.545686" xlink:href="#m77dae0a971" y="167.063844"/>
     <use style="fill:#4c7eb2;fill-opacity:0.8;stroke:#4c7eb2;stroke-opacity:0.8;" x="313.88988" xlink:href="#m77dae0a971" y="127.776785"/>
     <use style="fill:#4c7eb2;fill-opacity:0.8;stroke:#4c7eb2;stroke-opacity:0.8;" x="279.014222" xlink:href="#m77dae0a971" y="167.063844"/>
     <use style="fill:#4c7eb2;fill-opacity:0.8;stroke:#4c7eb2;stroke-opacity:0.8;" x="295.446322" xlink:href="#m77dae0a971" y="157.63495"/>
     <use style="fill:#4c7eb2;fill-opacity:0.8;stroke:#4c7eb2;stroke-opacity:0.8;" x="294.829386" xlink:href="#m77dae0a971" y="148.206055"/>
     <use style="fill:#4c7eb2;fill-opacity:0.8;stroke:#4c7eb2;stroke-opacity:0.8;" x="280.068467" xlink:href="#m77dae0a971" y="167.063844"/>
     <use style="fill:#4c7eb2;fill-opacity:0.8;stroke:#4c7eb2;stroke-opacity:0.8;" x="279.065132" xlink:href="#m77dae0a971" y="167.063844"/>
     <use style="fill:#4c7eb2;fill-opacity:0.8;stroke:#4c7eb2;stroke-opacity:0.8;" x="285.6459" xlink:href="#m77dae0a971" y="157.63495"/>
     <use style="fill:#4c7eb2;fill-opacity:0.8;stroke:#4c7eb2;stroke-opacity:0.8;" x="290.159346" xlink:href="#m77dae0a971" y="135.634197"/>
     <use style="fill:#4c7eb2;fill-opacity:0.8;stroke:#4c7eb2;stroke-opacity:0.8;" x="284.478983" xlink:href="#m77dae0a971" y="152.920502"/>
     <use style="fill:#4c7eb2;fill-opacity:0.8;stroke:#4c7eb2;stroke-opacity:0.8;" x="279.060524" xlink:href="#m77dae0a971" y="167.063844"/>
     <use style="fill:#4c7eb2;fill-opacity:0.8;stroke:#4c7eb2;stroke-opacity:0.8;" x="312.339762" xlink:href="#m77dae0a971" y="160.777914"/>
     <use style="fill:#4c7eb2;fill-opacity:0.8;stroke:#4c7eb2;stroke-opacity:0.8;" x="296.41426" xlink:href="#m77dae0a971" y="160.777914"/>
     <use style="fill:#4c7eb2;fill-opacity:0.8;stroke:#4c7eb2;stroke-opacity:0.8;" x="287.398314" xlink:href="#m77dae0a971" y="159.206432"/>
     <use style="fill:#4c7eb2;fill-opacity:0.8;stroke:#4c7eb2;stroke-opacity:0.8;" x="283.452887" xlink:href="#m77dae0a971" y="149.777538"/>
     <use style="fill:#4c7eb2;fill-opacity:0.8;stroke:#4c7eb2;stroke-opacity:0.8;" x="281.056037" xlink:href="#m77dae0a971" y="167.063844"/>
     <use style="fill:#4c7eb2;fill-opacity:0.8;stroke:#4c7eb2;stroke-opacity:0.8;" x="289.194986" xlink:href="#m77dae0a971" y="163.920879"/>
     <use style="fill:#4c7eb2;fill-opacity:0.8;stroke:#4c7eb2;stroke-opacity:0.8;" x="313.520116" xlink:href="#m77dae0a971" y="138.777161"/>
     <use style="fill:#4c7eb2;fill-opacity:0.8;stroke:#4c7eb2;stroke-opacity:0.8;" x="293.023796" xlink:href="#m77dae0a971" y="146.634573"/>
     <use style="fill:#4c7eb2;fill-opacity:0.8;stroke:#4c7eb2;stroke-opacity:0.8;" x="286.819717" xlink:href="#m77dae0a971" y="154.491985"/>
     <use style="fill:#4c7eb2;fill-opacity:0.8;stroke:#4c7eb2;stroke-opacity:0.8;" x="282.605403" xlink:href="#m77dae0a971" y="167.063844"/>
     <use style="fill:#4c7eb2;fill-opacity:0.8;stroke:#4c7eb2;stroke-opacity:0.8;" x="287.431052" xlink:href="#m77dae0a971" y="156.063467"/>
     <use style="fill:#4c7eb2;fill-opacity:0.8;stroke:#4c7eb2;stroke-opacity:0.8;" x="284.640948" xlink:href="#m77dae0a971" y="148.206055"/>
     <use style="fill:#4c7eb2;fill-opacity:0.8;stroke:#4c7eb2;stroke-opacity:0.8;" x="292.739588" xlink:href="#m77dae0a971" y="154.491985"/>
     <use style="fill:#4c7eb2;fill-opacity:0.8;stroke:#4c7eb2;stroke-opacity:0.8;" x="301.455304" xlink:href="#m77dae0a971" y="152.920502"/>
     <use style="fill:#4c7eb2;fill-opacity:0.8;stroke:#4c7eb2;stroke-opacity:0.8;" x="283.011879" xlink:href="#m77dae0a971" y="163.920879"/>
     <use style="fill:#4c7eb2;fill-opacity:0.8;stroke:#4c7eb2;stroke-opacity:0.8;" x="279.628669" xlink:href="#m77dae0a971" y="163.920879"/>
     <use style="fill:#4c7eb2;fill-opacity:0.8;stroke:#4c7eb2;stroke-opacity:0.8;" x="284.562241" xlink:href="#m77dae0a971" y="162.349397"/>
     <use style="fill:#4c7eb2;fill-opacity:0.8;stroke:#4c7eb2;stroke-opacity:0.8;" x="279.223318" xlink:href="#m77dae0a971" y="167.063844"/>
     <use style="fill:#4c7eb2;fill-opacity:0.8;stroke:#4c7eb2;stroke-opacity:0.8;" x="283.825368" xlink:href="#m77dae0a971" y="154.491985"/>
     <use style="fill:#4c7eb2;fill-opacity:0.8;stroke:#4c7eb2;stroke-opacity:0.8;" x="278.656288" xlink:href="#m77dae0a971" y="165.492361"/>
     <use style="fill:#4c7eb2;fill-opacity:0.8;stroke:#4c7eb2;stroke-opacity:0.8;" x="278.841079" xlink:href="#m77dae0a971" y="165.492361"/>
     <use style="fill:#4c7eb2;fill-opacity:0.8;stroke:#4c7eb2;stroke-opacity:0.8;" x="279.853631" xlink:href="#m77dae0a971" y="163.920879"/>
     <use style="fill:#4c7eb2;fill-opacity:0.8;stroke:#4c7eb2;stroke-opacity:0.8;" x="307.213203" xlink:href="#m77dae0a971" y="145.063091"/>
     <use style="fill:#4c7eb2;fill-opacity:0.8;stroke:#4c7eb2;stroke-opacity:0.8;" x="335.899178" xlink:href="#m77dae0a971" y="118.347891"/>
     <use style="fill:#4c7eb2;fill-opacity:0.8;stroke:#4c7eb2;stroke-opacity:0.8;" x="296.689188" xlink:href="#m77dae0a971" y="149.777538"/>
     <use style="fill:#4c7eb2;fill-opacity:0.8;stroke:#4c7eb2;stroke-opacity:0.8;" x="286.987787" xlink:href="#m77dae0a971" y="157.63495"/>
     <use style="fill:#4c7eb2;fill-opacity:0.8;stroke:#4c7eb2;stroke-opacity:0.8;" x="284.995936" xlink:href="#m77dae0a971" y="152.920502"/>
     <use style="fill:#4c7eb2;fill-opacity:0.8;stroke:#4c7eb2;stroke-opacity:0.8;" x="283.920862" xlink:href="#m77dae0a971" y="167.063844"/>
     <use style="fill:#4c7eb2;fill-opacity:0.8;stroke:#4c7eb2;stroke-opacity:0.8;" x="279.1988" xlink:href="#m77dae0a971" y="167.063844"/>
     <use style="fill:#4c7eb2;fill-opacity:0.8;stroke:#4c7eb2;stroke-opacity:0.8;" x="290.765733" xlink:href="#m77dae0a971" y="160.777914"/>
     <use style="fill:#4c7eb2;fill-opacity:0.8;stroke:#4c7eb2;stroke-opacity:0.8;" x="316.340046" xlink:href="#m77dae0a971" y="159.206432"/>
     <use style="fill:#4c7eb2;fill-opacity:0.8;stroke:#4c7eb2;stroke-opacity:0.8;" x="299.404683" xlink:href="#m77dae0a971" y="167.063844"/>
     <use style="fill:#4c7eb2;fill-opacity:0.8;stroke:#4c7eb2;stroke-opacity:0.8;" x="361.588001" xlink:href="#m77dae0a971" y="115.204926"/>
     <use style="fill:#4c7eb2;fill-opacity:0.8;stroke:#4c7eb2;stroke-opacity:0.8;" x="380.546251" xlink:href="#m77dae0a971" y="85.346762"/>
     <use style="fill:#4c7eb2;fill-opacity:0.8;stroke:#4c7eb2;stroke-opacity:0.8;" x="283.600075" xlink:href="#m77dae0a971" y="167.063844"/>
     <use style="fill:#4c7eb2;fill-opacity:0.8;stroke:#4c7eb2;stroke-opacity:0.8;" x="292.652292" xlink:href="#m77dae0a971" y="167.063844"/>
     <use style="fill:#4c7eb2;fill-opacity:0.8;stroke:#4c7eb2;stroke-opacity:0.8;" x="342.177149" xlink:href="#m77dae0a971" y="96.347138"/>
     <use style="fill:#4c7eb2;fill-opacity:0.8;stroke:#4c7eb2;stroke-opacity:0.8;" x="296.369172" xlink:href="#m77dae0a971" y="145.063091"/>
     <use style="fill:#4c7eb2;fill-opacity:0.8;stroke:#4c7eb2;stroke-opacity:0.8;" x="282.606949" xlink:href="#m77dae0a971" y="167.063844"/>
     <use style="fill:#4c7eb2;fill-opacity:0.8;stroke:#4c7eb2;stroke-opacity:0.8;" x="285.593575" xlink:href="#m77dae0a971" y="151.34902"/>
     <use style="fill:#4c7eb2;fill-opacity:0.8;stroke:#4c7eb2;stroke-opacity:0.8;" x="283.578623" xlink:href="#m77dae0a971" y="167.063844"/>
     <use style="fill:#4c7eb2;fill-opacity:0.8;stroke:#4c7eb2;stroke-opacity:0.8;" x="283.136901" xlink:href="#m77dae0a971" y="162.349397"/>
     <use style="fill:#4c7eb2;fill-opacity:0.8;stroke:#4c7eb2;stroke-opacity:0.8;" x="290.989747" xlink:href="#m77dae0a971" y="167.063844"/>
     <use style="fill:#4c7eb2;fill-opacity:0.8;stroke:#4c7eb2;stroke-opacity:0.8;" x="280.610105" xlink:href="#m77dae0a971" y="167.063844"/>
     <use style="fill:#4c7eb2;fill-opacity:0.8;stroke:#4c7eb2;stroke-opacity:0.8;" x="307.849612" xlink:href="#m77dae0a971" y="163.920879"/>
     <use style="fill:#4c7eb2;fill-opacity:0.8;stroke:#4c7eb2;stroke-opacity:0.8;" x="287.138129" xlink:href="#m77dae0a971" y="165.492361"/>
     <use style="fill:#4c7eb2;fill-opacity:0.8;stroke:#4c7eb2;stroke-opacity:0.8;" x="284.958346" xlink:href="#m77dae0a971" y="167.063844"/>
     <use style="fill:#4c7eb2;fill-opacity:0.8;stroke:#4c7eb2;stroke-opacity:0.8;" x="278.700283" xlink:href="#m77dae0a971" y="167.063844"/>
     <use style="fill:#4c7eb2;fill-opacity:0.8;stroke:#4c7eb2;stroke-opacity:0.8;" x="408.084898" xlink:href="#m77dae0a971" y="63.346009"/>
     <use style="fill:#4c7eb2;fill-opacity:0.8;stroke:#4c7eb2;stroke-opacity:0.8;" x="319.134477" xlink:href="#m77dae0a971" y="140.348644"/>
     <use style="fill:#4c7eb2;fill-opacity:0.8;stroke:#4c7eb2;stroke-opacity:0.8;" x="278.570221" xlink:href="#m77dae0a971" y="167.063844"/>
     <use style="fill:#4c7eb2;fill-opacity:0.8;stroke:#4c7eb2;stroke-opacity:0.8;" x="296.984468" xlink:href="#m77dae0a971" y="167.063844"/>
     <use style="fill:#4c7eb2;fill-opacity:0.8;stroke:#4c7eb2;stroke-opacity:0.8;" x="300.556613" xlink:href="#m77dae0a971" y="140.348644"/>
     <use style="fill:#4c7eb2;fill-opacity:0.8;stroke:#4c7eb2;stroke-opacity:0.8;" x="287.794449" xlink:href="#m77dae0a971" y="157.63495"/>
     <use style="fill:#4c7eb2;fill-opacity:0.8;stroke:#4c7eb2;stroke-opacity:0.8;" x="289.391557" xlink:href="#m77dae0a971" y="165.492361"/>
     <use style="fill:#4c7eb2;fill-opacity:0.8;stroke:#4c7eb2;stroke-opacity:0.8;" x="284.557663" xlink:href="#m77dae0a971" y="160.777914"/>
     <use style="fill:#4c7eb2;fill-opacity:0.8;stroke:#4c7eb2;stroke-opacity:0.8;" x="280.386175" xlink:href="#m77dae0a971" y="157.63495"/>
     <use style="fill:#4c7eb2;fill-opacity:0.8;stroke:#4c7eb2;stroke-opacity:0.8;" x="284.91032" xlink:href="#m77dae0a971" y="159.206432"/>
     <use style="fill:#4c7eb2;fill-opacity:0.8;stroke:#4c7eb2;stroke-opacity:0.8;" x="281.534926" xlink:href="#m77dae0a971" y="159.206432"/>
     <use style="fill:#4c7eb2;fill-opacity:0.8;stroke:#4c7eb2;stroke-opacity:0.8;" x="323.886672" xlink:href="#m77dae0a971" y="160.777914"/>
     <use style="fill:#4c7eb2;fill-opacity:0.8;stroke:#4c7eb2;stroke-opacity:0.8;" x="285.465447" xlink:href="#m77dae0a971" y="162.349397"/>
     <use style="fill:#4c7eb2;fill-opacity:0.8;stroke:#4c7eb2;stroke-opacity:0.8;" x="283.448192" xlink:href="#m77dae0a971" y="160.777914"/>
     <use style="fill:#4c7eb2;fill-opacity:0.8;stroke:#4c7eb2;stroke-opacity:0.8;" x="278.793042" xlink:href="#m77dae0a971" y="167.063844"/>
     <use style="fill:#4c7eb2;fill-opacity:0.8;stroke:#4c7eb2;stroke-opacity:0.8;" x="288.18017" xlink:href="#m77dae0a971" y="149.777538"/>
     <use style="fill:#4c7eb2;fill-opacity:0.8;stroke:#4c7eb2;stroke-opacity:0.8;" x="280.539987" xlink:href="#m77dae0a971" y="157.63495"/>
     <use style="fill:#4c7eb2;fill-opacity:0.8;stroke:#4c7eb2;stroke-opacity:0.8;" x="287.887982" xlink:href="#m77dae0a971" y="127.776785"/>
     <use style="fill:#4c7eb2;fill-opacity:0.8;stroke:#4c7eb2;stroke-opacity:0.8;" x="280.323552" xlink:href="#m77dae0a971" y="160.777914"/>
     <use style="fill:#4c7eb2;fill-opacity:0.8;stroke:#4c7eb2;stroke-opacity:0.8;" x="345.616041" xlink:href="#m77dae0a971" y="79.060833"/>
     <use style="fill:#4c7eb2;fill-opacity:0.8;stroke:#4c7eb2;stroke-opacity:0.8;" x="285.471631" xlink:href="#m77dae0a971" y="167.063844"/>
     <use style="fill:#4c7eb2;fill-opacity:0.8;stroke:#4c7eb2;stroke-opacity:0.8;" x="289.928662" xlink:href="#m77dae0a971" y="156.063467"/>
     <use style="fill:#4c7eb2;fill-opacity:0.8;stroke:#4c7eb2;stroke-opacity:0.8;" x="316.672394" xlink:href="#m77dae0a971" y="143.491608"/>
     <use style="fill:#4c7eb2;fill-opacity:0.8;stroke:#4c7eb2;stroke-opacity:0.8;" x="295.794072" xlink:href="#m77dae0a971" y="149.777538"/>
     <use style="fill:#4c7eb2;fill-opacity:0.8;stroke:#4c7eb2;stroke-opacity:0.8;" x="294.4599" xlink:href="#m77dae0a971" y="102.633068"/>
     <use style="fill:#4c7eb2;fill-opacity:0.8;stroke:#4c7eb2;stroke-opacity:0.8;" x="281.595885" xlink:href="#m77dae0a971" y="167.063844"/>
     <use style="fill:#4c7eb2;fill-opacity:0.8;stroke:#4c7eb2;stroke-opacity:0.8;" x="325.083273" xlink:href="#m77dae0a971" y="127.776785"/>
     <use style="fill:#4c7eb2;fill-opacity:0.8;stroke:#4c7eb2;stroke-opacity:0.8;" x="278.524043" xlink:href="#m77dae0a971" y="167.063844"/>
     <use style="fill:#4c7eb2;fill-opacity:0.8;stroke:#4c7eb2;stroke-opacity:0.8;" x="312.734248" xlink:href="#m77dae0a971" y="101.061585"/>
     <use style="fill:#4c7eb2;fill-opacity:0.8;stroke:#4c7eb2;stroke-opacity:0.8;" x="311.184262" xlink:href="#m77dae0a971" y="148.206055"/>
     <use style="fill:#4c7eb2;fill-opacity:0.8;stroke:#4c7eb2;stroke-opacity:0.8;" x="278.727167" xlink:href="#m77dae0a971" y="167.063844"/>
     <use style="fill:#4c7eb2;fill-opacity:0.8;stroke:#4c7eb2;stroke-opacity:0.8;" x="287.702441" xlink:href="#m77dae0a971" y="163.920879"/>
     <use style="fill:#4c7eb2;fill-opacity:0.8;stroke:#4c7eb2;stroke-opacity:0.8;" x="302.048321" xlink:href="#m77dae0a971" y="121.490856"/>
     <use style="fill:#4c7eb2;fill-opacity:0.8;stroke:#4c7eb2;stroke-opacity:0.8;" x="281.107549" xlink:href="#m77dae0a971" y="151.34902"/>
     <use style="fill:#4c7eb2;fill-opacity:0.8;stroke:#4c7eb2;stroke-opacity:0.8;" x="283.627584" xlink:href="#m77dae0a971" y="163.920879"/>
     <use style="fill:#4c7eb2;fill-opacity:0.8;stroke:#4c7eb2;stroke-opacity:0.8;" x="315.571628" xlink:href="#m77dae0a971" y="157.63495"/>
     <use style="fill:#4c7eb2;fill-opacity:0.8;stroke:#4c7eb2;stroke-opacity:0.8;" x="280.497161" xlink:href="#m77dae0a971" y="165.492361"/>
     <use style="fill:#4c7eb2;fill-opacity:0.8;stroke:#4c7eb2;stroke-opacity:0.8;" x="281.641321" xlink:href="#m77dae0a971" y="163.920879"/>
     <use style="fill:#4c7eb2;fill-opacity:0.8;stroke:#4c7eb2;stroke-opacity:0.8;" x="288.901683" xlink:href="#m77dae0a971" y="167.063844"/>
     <use style="fill:#4c7eb2;fill-opacity:0.8;stroke:#4c7eb2;stroke-opacity:0.8;" x="281.784229" xlink:href="#m77dae0a971" y="156.063467"/>
     <use style="fill:#4c7eb2;fill-opacity:0.8;stroke:#4c7eb2;stroke-opacity:0.8;" x="306.740847" xlink:href="#m77dae0a971" y="167.063844"/>
     <use style="fill:#4c7eb2;fill-opacity:0.8;stroke:#4c7eb2;stroke-opacity:0.8;" x="281.963243" xlink:href="#m77dae0a971" y="163.920879"/>
     <use style="fill:#4c7eb2;fill-opacity:0.8;stroke:#4c7eb2;stroke-opacity:0.8;" x="288.397656" xlink:href="#m77dae0a971" y="163.920879"/>
     <use style="fill:#4c7eb2;fill-opacity:0.8;stroke:#4c7eb2;stroke-opacity:0.8;" x="280.446893" xlink:href="#m77dae0a971" y="165.492361"/>
     <use style="fill:#4c7eb2;fill-opacity:0.8;stroke:#4c7eb2;stroke-opacity:0.8;" x="284.834564" xlink:href="#m77dae0a971" y="148.206055"/>
     <use style="fill:#4c7eb2;fill-opacity:0.8;stroke:#4c7eb2;stroke-opacity:0.8;" x="298.182493" xlink:href="#m77dae0a971" y="99.490103"/>
     <use style="fill:#4c7eb2;fill-opacity:0.8;stroke:#4c7eb2;stroke-opacity:0.8;" x="282.894089" xlink:href="#m77dae0a971" y="167.063844"/>
     <use style="fill:#4c7eb2;fill-opacity:0.8;stroke:#4c7eb2;stroke-opacity:0.8;" x="279.714405" xlink:href="#m77dae0a971" y="167.063844"/>
     <use style="fill:#4c7eb2;fill-opacity:0.8;stroke:#4c7eb2;stroke-opacity:0.8;" x="289.355558" xlink:href="#m77dae0a971" y="160.777914"/>
     <use style="fill:#4c7eb2;fill-opacity:0.8;stroke:#4c7eb2;stroke-opacity:0.8;" x="279.035505" xlink:href="#m77dae0a971" y="163.920879"/>
     <use style="fill:#4c7eb2;fill-opacity:0.8;stroke:#4c7eb2;stroke-opacity:0.8;" x="279.903839" xlink:href="#m77dae0a971" y="167.063844"/>
     <use style="fill:#4c7eb2;fill-opacity:0.8;stroke:#4c7eb2;stroke-opacity:0.8;" x="283.376183" xlink:href="#m77dae0a971" y="151.34902"/>
     <use style="fill:#4c7eb2;fill-opacity:0.8;stroke:#4c7eb2;stroke-opacity:0.8;" x="308.52509" xlink:href="#m77dae0a971" y="96.347138"/>
     <use style="fill:#4c7eb2;fill-opacity:0.8;stroke:#4c7eb2;stroke-opacity:0.8;" x="285.668213" xlink:href="#m77dae0a971" y="165.492361"/>
     <use style="fill:#4c7eb2;fill-opacity:0.8;stroke:#4c7eb2;stroke-opacity:0.8;" x="284.282645" xlink:href="#m77dae0a971" y="165.492361"/>
     <use style="fill:#4c7eb2;fill-opacity:0.8;stroke:#4c7eb2;stroke-opacity:0.8;" x="278.995068" xlink:href="#m77dae0a971" y="167.063844"/>
     <use style="fill:#4c7eb2;fill-opacity:0.8;stroke:#4c7eb2;stroke-opacity:0.8;" x="290.453991" xlink:href="#m77dae0a971" y="167.063844"/>
     <use style="fill:#4c7eb2;fill-opacity:0.8;stroke:#4c7eb2;stroke-opacity:0.8;" x="317.782235" xlink:href="#m77dae0a971" y="127.776785"/>
     <use style="fill:#4c7eb2;fill-opacity:0.8;stroke:#4c7eb2;stroke-opacity:0.8;" x="288.600731" xlink:href="#m77dae0a971" y="167.063844"/>
     <use style="fill:#4c7eb2;fill-opacity:0.8;stroke:#4c7eb2;stroke-opacity:0.8;" x="304.139322" xlink:href="#m77dae0a971" y="167.063844"/>
     <use style="fill:#4c7eb2;fill-opacity:0.8;stroke:#4c7eb2;stroke-opacity:0.8;" x="296.00424" xlink:href="#m77dae0a971" y="159.206432"/>
     <use style="fill:#4c7eb2;fill-opacity:0.8;stroke:#4c7eb2;stroke-opacity:0.8;" x="290.311631" xlink:href="#m77dae0a971" y="167.063844"/>
     <use style="fill:#4c7eb2;fill-opacity:0.8;stroke:#4c7eb2;stroke-opacity:0.8;" x="279.314447" xlink:href="#m77dae0a971" y="167.063844"/>
     <use style="fill:#4c7eb2;fill-opacity:0.8;stroke:#4c7eb2;stroke-opacity:0.8;" x="287.422515" xlink:href="#m77dae0a971" y="167.063844"/>
     <use style="fill:#4c7eb2;fill-opacity:0.8;stroke:#4c7eb2;stroke-opacity:0.8;" x="281.286786" xlink:href="#m77dae0a971" y="167.063844"/>
     <use style="fill:#4c7eb2;fill-opacity:0.8;stroke:#4c7eb2;stroke-opacity:0.8;" x="287.112721" xlink:href="#m77dae0a971" y="167.063844"/>
     <use style="fill:#4c7eb2;fill-opacity:0.8;stroke:#4c7eb2;stroke-opacity:0.8;" x="280.332827" xlink:href="#m77dae0a971" y="160.777914"/>
     <use style="fill:#4c7eb2;fill-opacity:0.8;stroke:#4c7eb2;stroke-opacity:0.8;" x="280.198016" xlink:href="#m77dae0a971" y="162.349397"/>
     <use style="fill:#4c7eb2;fill-opacity:0.8;stroke:#4c7eb2;stroke-opacity:0.8;" x="291.894176" xlink:href="#m77dae0a971" y="145.063091"/>
     <use style="fill:#4c7eb2;fill-opacity:0.8;stroke:#4c7eb2;stroke-opacity:0.8;" x="279.143977" xlink:href="#m77dae0a971" y="160.777914"/>
     <use style="fill:#4c7eb2;fill-opacity:0.8;stroke:#4c7eb2;stroke-opacity:0.8;" x="318.410679" xlink:href="#m77dae0a971" y="160.777914"/>
     <use style="fill:#4c7eb2;fill-opacity:0.8;stroke:#4c7eb2;stroke-opacity:0.8;" x="289.016639" xlink:href="#m77dae0a971" y="167.063844"/>
     <use style="fill:#4c7eb2;fill-opacity:0.8;stroke:#4c7eb2;stroke-opacity:0.8;" x="278.579698" xlink:href="#m77dae0a971" y="167.063844"/>
     <use style="fill:#4c7eb2;fill-opacity:0.8;stroke:#4c7eb2;stroke-opacity:0.8;" x="286.721381" xlink:href="#m77dae0a971" y="167.063844"/>
     <use style="fill:#4c7eb2;fill-opacity:0.8;stroke:#4c7eb2;stroke-opacity:0.8;" x="286.629432" xlink:href="#m77dae0a971" y="160.777914"/>
     <use style="fill:#4c7eb2;fill-opacity:0.8;stroke:#4c7eb2;stroke-opacity:0.8;" x="299.367134" xlink:href="#m77dae0a971" y="163.920879"/>
     <use style="fill:#4c7eb2;fill-opacity:0.8;stroke:#4c7eb2;stroke-opacity:0.8;" x="301.313184" xlink:href="#m77dae0a971" y="138.777161"/>
     <use style="fill:#4c7eb2;fill-opacity:0.8;stroke:#4c7eb2;stroke-opacity:0.8;" x="306.122736" xlink:href="#m77dae0a971" y="165.492361"/>
     <use style="fill:#4c7eb2;fill-opacity:0.8;stroke:#4c7eb2;stroke-opacity:0.8;" x="312.923999" xlink:href="#m77dae0a971" y="126.205303"/>
     <use style="fill:#4c7eb2;fill-opacity:0.8;stroke:#4c7eb2;stroke-opacity:0.8;" x="299.178339" xlink:href="#m77dae0a971" y="163.920879"/>
     <use style="fill:#4c7eb2;fill-opacity:0.8;stroke:#4c7eb2;stroke-opacity:0.8;" x="286.467737" xlink:href="#m77dae0a971" y="146.634573"/>
     <use style="fill:#4c7eb2;fill-opacity:0.8;stroke:#4c7eb2;stroke-opacity:0.8;" x="297.541708" xlink:href="#m77dae0a971" y="93.204174"/>
     <use style="fill:#4c7eb2;fill-opacity:0.8;stroke:#4c7eb2;stroke-opacity:0.8;" x="304.075424" xlink:href="#m77dae0a971" y="152.920502"/>
     <use style="fill:#4c7eb2;fill-opacity:0.8;stroke:#4c7eb2;stroke-opacity:0.8;" x="278.955368" xlink:href="#m77dae0a971" y="167.063844"/>
     <use style="fill:#4c7eb2;fill-opacity:0.8;stroke:#4c7eb2;stroke-opacity:0.8;" x="310.449613" xlink:href="#m77dae0a971" y="160.777914"/>
     <use style="fill:#4c7eb2;fill-opacity:0.8;stroke:#4c7eb2;stroke-opacity:0.8;" x="300.426194" xlink:href="#m77dae0a971" y="134.062714"/>
     <use style="fill:#4c7eb2;fill-opacity:0.8;stroke:#4c7eb2;stroke-opacity:0.8;" x="307.864735" xlink:href="#m77dae0a971" y="110.490479"/>
    </g>
   </g>
   <g id="PolyCollection_1">
    <path clip-path="url(#p2a4362391e)" d="M 272.046 167.989281 
L 272.046 172.833506 
L 273.485565 171.621843 
L 274.92513 170.398483 
L 276.364695 169.154357 
L 277.80426 167.91262 
L 279.243825 166.730956 
L 280.68339 165.564158 
L 282.122955 164.406393 
L 283.56252 163.243033 
L 285.002086 161.959251 
L 286.441651 160.874646 
L 287.881216 159.798564 
L 289.320781 158.716345 
L 290.760346 157.64641 
L 292.199911 156.573524 
L 293.639476 155.569963 
L 295.079041 154.596502 
L 296.518606 153.607524 
L 297.958171 152.597511 
L 299.397736 151.559642 
L 300.837301 150.574993 
L 302.276866 149.569574 
L 303.716431 148.621236 
L 305.155996 147.679692 
L 306.595561 146.739556 
L 308.035127 145.813454 
L 309.474692 144.839461 
L 310.914257 143.966933 
L 312.353822 143.035949 
L 313.793387 142.112398 
L 315.232952 141.204235 
L 316.672517 140.230504 
L 318.112082 139.256393 
L 319.551647 138.28133 
L 320.991212 137.305562 
L 322.430777 136.329794 
L 323.870342 135.398379 
L 325.309907 134.482023 
L 326.749472 133.565667 
L 328.189037 132.649236 
L 329.628602 131.680373 
L 331.068168 130.743905 
L 332.507733 129.815314 
L 333.947298 128.885851 
L 335.386863 127.956246 
L 336.826428 127.0438 
L 338.265993 126.126687 
L 339.705558 125.178201 
L 341.145123 124.242152 
L 342.584688 123.314151 
L 344.024253 122.386151 
L 345.463818 121.457305 
L 346.903383 120.528053 
L 348.342948 119.598802 
L 349.782513 118.66955 
L 351.222078 117.740299 
L 352.661643 116.811048 
L 354.101209 115.881796 
L 355.540774 114.952339 
L 356.980339 114.022774 
L 358.419904 113.093209 
L 359.859469 112.16979 
L 361.299034 111.234915 
L 362.738599 110.306288 
L 364.178164 109.377036 
L 365.617729 108.447785 
L 367.057294 107.518534 
L 368.496859 106.579443 
L 369.936424 105.638342 
L 371.375989 104.69724 
L 372.815554 103.756139 
L 374.255119 102.815037 
L 375.694684 101.873936 
L 377.13425 100.937678 
L 378.573815 100.019615 
L 380.01338 99.101551 
L 381.452945 98.183487 
L 382.89251 97.265423 
L 384.332075 96.34736 
L 385.77164 95.429296 
L 387.211205 94.511232 
L 388.65077 93.584612 
L 390.090335 92.655952 
L 391.5299 91.730475 
L 392.969465 90.817622 
L 394.40903 89.904769 
L 395.848595 88.991915 
L 397.28816 88.079062 
L 398.727725 87.166209 
L 400.167291 86.251172 
L 401.606856 85.333514 
L 403.046421 84.415855 
L 404.485986 83.498197 
L 405.925551 82.580538 
L 407.365116 81.66288 
L 408.804681 80.744557 
L 410.244246 79.803751 
L 411.683811 78.857168 
L 413.123376 77.910584 
L 414.562941 76.964 
L 414.562941 40.703636 
L 414.562941 40.703636 
L 413.123376 42.019591 
L 411.683811 43.335545 
L 410.244246 44.6515 
L 408.804681 45.967454 
L 407.365116 47.283408 
L 405.925551 48.599363 
L 404.485986 49.915317 
L 403.046421 51.231272 
L 401.606856 52.547226 
L 400.167291 53.86318 
L 398.727725 55.179135 
L 397.28816 56.495089 
L 395.848595 57.811044 
L 394.40903 59.126998 
L 392.969465 60.442952 
L 391.5299 61.758907 
L 390.090335 63.074861 
L 388.65077 64.390816 
L 387.211205 65.70677 
L 385.77164 67.022724 
L 384.332075 68.338679 
L 382.89251 69.654633 
L 381.452945 70.971027 
L 380.01338 72.292642 
L 378.573815 73.643808 
L 377.13425 74.994974 
L 375.694684 76.338702 
L 374.255119 77.626011 
L 372.815554 78.91332 
L 371.375989 80.200678 
L 369.936424 81.516563 
L 368.496859 82.847639 
L 367.057294 84.178715 
L 365.617729 85.509791 
L 364.178164 86.840867 
L 362.738599 88.171943 
L 361.299034 89.503019 
L 359.859469 90.834094 
L 358.419904 92.159181 
L 356.980339 93.460498 
L 355.540774 94.761991 
L 354.101209 96.063485 
L 352.661643 97.364979 
L 351.222078 98.666473 
L 349.782513 99.986367 
L 348.342948 101.289256 
L 346.903383 102.600744 
L 345.463818 103.967889 
L 344.024253 105.295235 
L 342.584688 106.62273 
L 341.145123 107.938261 
L 339.705558 109.220922 
L 338.265993 110.494061 
L 336.826428 111.7672 
L 335.386863 113.082556 
L 333.947298 114.397734 
L 332.507733 115.713037 
L 331.068168 117.028992 
L 329.628602 118.344946 
L 328.189037 119.661157 
L 326.749472 120.989654 
L 325.309907 122.340359 
L 323.870342 123.662797 
L 322.430777 124.985234 
L 320.991212 126.307672 
L 319.551647 127.63011 
L 318.112082 128.953421 
L 316.672517 130.322123 
L 315.232952 131.630813 
L 313.793387 132.938862 
L 312.353822 134.266937 
L 310.914257 135.610277 
L 309.474692 136.953666 
L 308.035127 138.256267 
L 306.595561 139.551934 
L 305.155996 140.843738 
L 303.716431 142.135878 
L 302.276866 143.463821 
L 300.837301 144.792706 
L 299.397736 146.110351 
L 297.958171 147.360477 
L 296.518606 148.630563 
L 295.079041 149.938416 
L 293.639476 151.181634 
L 292.199911 152.528981 
L 290.760346 153.805978 
L 289.320781 154.956906 
L 287.881216 156.126471 
L 286.441651 157.275299 
L 285.002086 158.431201 
L 283.56252 159.497981 
L 282.122955 160.677166 
L 280.68339 161.7704 
L 279.243825 162.803264 
L 277.80426 163.861573 
L 276.364695 164.854902 
L 274.92513 165.909776 
L 273.485565 166.989161 
L 272.046 167.989281 
z
" style="fill:#ff0000;fill-opacity:0.15;"/>
   </g>
   <g id="matplotlib.axis_1">
    <g id="xtick_1">
     <g id="line2d_1">
      <defs>
       <path d="M 0 0 
L 0 3.5 
" id="m868e17cce1" style="stroke:#000000;stroke-width:0.8;"/>
      </defs>
      <g>
       <use style="stroke:#000000;stroke-width:0.8;" x="293.512817" xlink:href="#m868e17cce1" y="179.44"/>
      </g>
     </g>
     <g id="text_1">
      <!-- 0 -->
      <defs>
       <path d="M 31.78125 66.40625 
Q 24.171875 66.40625 20.328125 58.90625 
Q 16.5 51.421875 16.5 36.375 
Q 16.5 21.390625 20.328125 13.890625 
Q 24.171875 6.390625 31.78125 6.390625 
Q 39.453125 6.390625 43.28125 13.890625 
Q 47.125 21.390625 47.125 36.375 
Q 47.125 51.421875 43.28125 58.90625 
Q 39.453125 66.40625 31.78125 66.40625 
z
M 31.78125 74.21875 
Q 44.046875 74.21875 50.515625 64.515625 
Q 56.984375 54.828125 56.984375 36.375 
Q 56.984375 17.96875 50.515625 8.265625 
Q 44.046875 -1.421875 31.78125 -1.421875 
Q 19.53125 -1.421875 13.0625 8.265625 
Q 6.59375 17.96875 6.59375 36.375 
Q 6.59375 54.828125 13.0625 64.515625 
Q 19.53125 74.21875 31.78125 74.21875 
z
" id="DejaVuSans-48"/>
      </defs>
      <g transform="translate(290.331567 194.038437)scale(0.1 -0.1)">
       <use xlink:href="#DejaVuSans-48"/>
      </g>
     </g>
    </g>
    <g id="xtick_2">
     <g id="line2d_2">
      <g>
       <use style="stroke:#000000;stroke-width:0.8;" x="337.011192" xlink:href="#m868e17cce1" y="179.44"/>
      </g>
     </g>
     <g id="text_2">
      <!-- 2 -->
      <defs>
       <path d="M 19.1875 8.296875 
L 53.609375 8.296875 
L 53.609375 0 
L 7.328125 0 
L 7.328125 8.296875 
Q 12.9375 14.109375 22.625 23.890625 
Q 32.328125 33.6875 34.8125 36.53125 
Q 39.546875 41.84375 41.421875 45.53125 
Q 43.3125 49.21875 43.3125 52.78125 
Q 43.3125 58.59375 39.234375 62.25 
Q 35.15625 65.921875 28.609375 65.921875 
Q 23.96875 65.921875 18.8125 64.3125 
Q 13.671875 62.703125 7.8125 59.421875 
L 7.8125 69.390625 
Q 13.765625 71.78125 18.9375 73 
Q 24.125 74.21875 28.421875 74.21875 
Q 39.75 74.21875 46.484375 68.546875 
Q 53.21875 62.890625 53.21875 53.421875 
Q 53.21875 48.921875 51.53125 44.890625 
Q 49.859375 40.875 45.40625 35.40625 
Q 44.1875 33.984375 37.640625 27.21875 
Q 31.109375 20.453125 19.1875 8.296875 
z
" id="DejaVuSans-50"/>
      </defs>
      <g transform="translate(333.829942 194.038437)scale(0.1 -0.1)">
       <use xlink:href="#DejaVuSans-50"/>
      </g>
     </g>
    </g>
    <g id="xtick_3">
     <g id="line2d_3">
      <g>
       <use style="stroke:#000000;stroke-width:0.8;" x="380.509567" xlink:href="#m868e17cce1" y="179.44"/>
      </g>
     </g>
     <g id="text_3">
      <!-- 4 -->
      <defs>
       <path d="M 37.796875 64.3125 
L 12.890625 25.390625 
L 37.796875 25.390625 
z
M 35.203125 72.90625 
L 47.609375 72.90625 
L 47.609375 25.390625 
L 58.015625 25.390625 
L 58.015625 17.1875 
L 47.609375 17.1875 
L 47.609375 0 
L 37.796875 0 
L 37.796875 17.1875 
L 4.890625 17.1875 
L 4.890625 26.703125 
z
" id="DejaVuSans-52"/>
      </defs>
      <g transform="translate(377.328317 194.038437)scale(0.1 -0.1)">
       <use xlink:href="#DejaVuSans-52"/>
      </g>
     </g>
    </g>
    <g id="text_4">
     <!-- Mean Scaled Adjacency -->
     <defs>
      <path d="M 9.8125 72.90625 
L 24.515625 72.90625 
L 43.109375 23.296875 
L 61.8125 72.90625 
L 76.515625 72.90625 
L 76.515625 0 
L 66.890625 0 
L 66.890625 64.015625 
L 48.09375 14.015625 
L 38.1875 14.015625 
L 19.390625 64.015625 
L 19.390625 0 
L 9.8125 0 
z
" id="DejaVuSans-77"/>
      <path d="M 56.203125 29.59375 
L 56.203125 25.203125 
L 14.890625 25.203125 
Q 15.484375 15.921875 20.484375 11.0625 
Q 25.484375 6.203125 34.421875 6.203125 
Q 39.59375 6.203125 44.453125 7.46875 
Q 49.3125 8.734375 54.109375 11.28125 
L 54.109375 2.78125 
Q 49.265625 0.734375 44.1875 -0.34375 
Q 39.109375 -1.421875 33.890625 -1.421875 
Q 20.796875 -1.421875 13.15625 6.1875 
Q 5.515625 13.8125 5.515625 26.8125 
Q 5.515625 40.234375 12.765625 48.109375 
Q 20.015625 56 32.328125 56 
Q 43.359375 56 49.78125 48.890625 
Q 56.203125 41.796875 56.203125 29.59375 
z
M 47.21875 32.234375 
Q 47.125 39.59375 43.09375 43.984375 
Q 39.0625 48.390625 32.421875 48.390625 
Q 24.90625 48.390625 20.390625 44.140625 
Q 15.875 39.890625 15.1875 32.171875 
z
" id="DejaVuSans-101"/>
      <path d="M 34.28125 27.484375 
Q 23.390625 27.484375 19.1875 25 
Q 14.984375 22.515625 14.984375 16.5 
Q 14.984375 11.71875 18.140625 8.90625 
Q 21.296875 6.109375 26.703125 6.109375 
Q 34.1875 6.109375 38.703125 11.40625 
Q 43.21875 16.703125 43.21875 25.484375 
L 43.21875 27.484375 
z
M 52.203125 31.203125 
L 52.203125 0 
L 43.21875 0 
L 43.21875 8.296875 
Q 40.140625 3.328125 35.546875 0.953125 
Q 30.953125 -1.421875 24.3125 -1.421875 
Q 15.921875 -1.421875 10.953125 3.296875 
Q 6 8.015625 6 15.921875 
Q 6 25.140625 12.171875 29.828125 
Q 18.359375 34.515625 30.609375 34.515625 
L 43.21875 34.515625 
L 43.21875 35.40625 
Q 43.21875 41.609375 39.140625 45 
Q 35.0625 48.390625 27.6875 48.390625 
Q 23 48.390625 18.546875 47.265625 
Q 14.109375 46.140625 10.015625 43.890625 
L 10.015625 52.203125 
Q 14.9375 54.109375 19.578125 55.046875 
Q 24.21875 56 28.609375 56 
Q 40.484375 56 46.34375 49.84375 
Q 52.203125 43.703125 52.203125 31.203125 
z
" id="DejaVuSans-97"/>
      <path d="M 54.890625 33.015625 
L 54.890625 0 
L 45.90625 0 
L 45.90625 32.71875 
Q 45.90625 40.484375 42.875 44.328125 
Q 39.84375 48.1875 33.796875 48.1875 
Q 26.515625 48.1875 22.3125 43.546875 
Q 18.109375 38.921875 18.109375 30.90625 
L 18.109375 0 
L 9.078125 0 
L 9.078125 54.6875 
L 18.109375 54.6875 
L 18.109375 46.1875 
Q 21.34375 51.125 25.703125 53.5625 
Q 30.078125 56 35.796875 56 
Q 45.21875 56 50.046875 50.171875 
Q 54.890625 44.34375 54.890625 33.015625 
z
" id="DejaVuSans-110"/>
      <path id="DejaVuSans-32"/>
      <path d="M 53.515625 70.515625 
L 53.515625 60.890625 
Q 47.90625 63.578125 42.921875 64.890625 
Q 37.9375 66.21875 33.296875 66.21875 
Q 25.25 66.21875 20.875 63.09375 
Q 16.5 59.96875 16.5 54.203125 
Q 16.5 49.359375 19.40625 46.890625 
Q 22.3125 44.4375 30.421875 42.921875 
L 36.375 41.703125 
Q 47.40625 39.59375 52.65625 34.296875 
Q 57.90625 29 57.90625 20.125 
Q 57.90625 9.515625 50.796875 4.046875 
Q 43.703125 -1.421875 29.984375 -1.421875 
Q 24.8125 -1.421875 18.96875 -0.25 
Q 13.140625 0.921875 6.890625 3.21875 
L 6.890625 13.375 
Q 12.890625 10.015625 18.65625 8.296875 
Q 24.421875 6.59375 29.984375 6.59375 
Q 38.421875 6.59375 43.015625 9.90625 
Q 47.609375 13.234375 47.609375 19.390625 
Q 47.609375 24.75 44.3125 27.78125 
Q 41.015625 30.8125 33.5 32.328125 
L 27.484375 33.5 
Q 16.453125 35.6875 11.515625 40.375 
Q 6.59375 45.0625 6.59375 53.421875 
Q 6.59375 63.09375 13.40625 68.65625 
Q 20.21875 74.21875 32.171875 74.21875 
Q 37.3125 74.21875 42.625 73.28125 
Q 47.953125 72.359375 53.515625 70.515625 
z
" id="DejaVuSans-83"/>
      <path d="M 48.78125 52.59375 
L 48.78125 44.1875 
Q 44.96875 46.296875 41.140625 47.34375 
Q 37.3125 48.390625 33.40625 48.390625 
Q 24.65625 48.390625 19.8125 42.84375 
Q 14.984375 37.3125 14.984375 27.296875 
Q 14.984375 17.28125 19.8125 11.734375 
Q 24.65625 6.203125 33.40625 6.203125 
Q 37.3125 6.203125 41.140625 7.25 
Q 44.96875 8.296875 48.78125 10.40625 
L 48.78125 2.09375 
Q 45.015625 0.34375 40.984375 -0.53125 
Q 36.96875 -1.421875 32.421875 -1.421875 
Q 20.0625 -1.421875 12.78125 6.34375 
Q 5.515625 14.109375 5.515625 27.296875 
Q 5.515625 40.671875 12.859375 48.328125 
Q 20.21875 56 33.015625 56 
Q 37.15625 56 41.109375 55.140625 
Q 45.0625 54.296875 48.78125 52.59375 
z
" id="DejaVuSans-99"/>
      <path d="M 9.421875 75.984375 
L 18.40625 75.984375 
L 18.40625 0 
L 9.421875 0 
z
" id="DejaVuSans-108"/>
      <path d="M 45.40625 46.390625 
L 45.40625 75.984375 
L 54.390625 75.984375 
L 54.390625 0 
L 45.40625 0 
L 45.40625 8.203125 
Q 42.578125 3.328125 38.25 0.953125 
Q 33.9375 -1.421875 27.875 -1.421875 
Q 17.96875 -1.421875 11.734375 6.484375 
Q 5.515625 14.40625 5.515625 27.296875 
Q 5.515625 40.1875 11.734375 48.09375 
Q 17.96875 56 27.875 56 
Q 33.9375 56 38.25 53.625 
Q 42.578125 51.265625 45.40625 46.390625 
z
M 14.796875 27.296875 
Q 14.796875 17.390625 18.875 11.75 
Q 22.953125 6.109375 30.078125 6.109375 
Q 37.203125 6.109375 41.296875 11.75 
Q 45.40625 17.390625 45.40625 27.296875 
Q 45.40625 37.203125 41.296875 42.84375 
Q 37.203125 48.484375 30.078125 48.484375 
Q 22.953125 48.484375 18.875 42.84375 
Q 14.796875 37.203125 14.796875 27.296875 
z
" id="DejaVuSans-100"/>
      <path d="M 34.1875 63.1875 
L 20.796875 26.90625 
L 47.609375 26.90625 
z
M 28.609375 72.90625 
L 39.796875 72.90625 
L 67.578125 0 
L 57.328125 0 
L 50.6875 18.703125 
L 17.828125 18.703125 
L 11.1875 0 
L 0.78125 0 
z
" id="DejaVuSans-65"/>
      <path d="M 9.421875 54.6875 
L 18.40625 54.6875 
L 18.40625 -0.984375 
Q 18.40625 -11.421875 14.421875 -16.109375 
Q 10.453125 -20.796875 1.609375 -20.796875 
L -1.8125 -20.796875 
L -1.8125 -13.1875 
L 0.59375 -13.1875 
Q 5.71875 -13.1875 7.5625 -10.8125 
Q 9.421875 -8.453125 9.421875 -0.984375 
z
M 9.421875 75.984375 
L 18.40625 75.984375 
L 18.40625 64.59375 
L 9.421875 64.59375 
z
" id="DejaVuSans-106"/>
      <path d="M 32.171875 -5.078125 
Q 28.375 -14.84375 24.75 -17.8125 
Q 21.140625 -20.796875 15.09375 -20.796875 
L 7.90625 -20.796875 
L 7.90625 -13.28125 
L 13.1875 -13.28125 
Q 16.890625 -13.28125 18.9375 -11.515625 
Q 21 -9.765625 23.484375 -3.21875 
L 25.09375 0.875 
L 2.984375 54.6875 
L 12.5 54.6875 
L 29.59375 11.921875 
L 46.6875 54.6875 
L 56.203125 54.6875 
z
" id="DejaVuSans-121"/>
     </defs>
     <g transform="translate(284.212283 207.716562)scale(0.1 -0.1)">
      <use xlink:href="#DejaVuSans-77"/>
      <use x="86.279297" xlink:href="#DejaVuSans-101"/>
      <use x="147.802734" xlink:href="#DejaVuSans-97"/>
      <use x="209.082031" xlink:href="#DejaVuSans-110"/>
      <use x="272.460938" xlink:href="#DejaVuSans-32"/>
      <use x="304.248047" xlink:href="#DejaVuSans-83"/>
      <use x="367.724609" xlink:href="#DejaVuSans-99"/>
      <use x="422.705078" xlink:href="#DejaVuSans-97"/>
      <use x="483.984375" xlink:href="#DejaVuSans-108"/>
      <use x="511.767578" xlink:href="#DejaVuSans-101"/>
      <use x="573.291016" xlink:href="#DejaVuSans-100"/>
      <use x="636.767578" xlink:href="#DejaVuSans-32"/>
      <use x="668.554688" xlink:href="#DejaVuSans-65"/>
      <use x="735.212891" xlink:href="#DejaVuSans-100"/>
      <use x="798.689453" xlink:href="#DejaVuSans-106"/>
      <use x="826.472656" xlink:href="#DejaVuSans-97"/>
      <use x="887.751953" xlink:href="#DejaVuSans-99"/>
      <use x="942.732422" xlink:href="#DejaVuSans-101"/>
      <use x="1004.255859" xlink:href="#DejaVuSans-110"/>
      <use x="1067.634766" xlink:href="#DejaVuSans-99"/>
      <use x="1122.615234" xlink:href="#DejaVuSans-121"/>
     </g>
    </g>
   </g>
   <g id="matplotlib.axis_2">
    <g id="ytick_1">
     <g id="line2d_4">
      <defs>
       <path d="M 0 0 
L -3.5 0 
" id="m04248922df" style="stroke:#000000;stroke-width:0.8;"/>
      </defs>
      <g>
       <use style="stroke:#000000;stroke-width:0.8;" x="272.046" xlink:href="#m04248922df" y="167.063844"/>
      </g>
     </g>
     <g id="text_5">
      <!-- 0 -->
      <g transform="translate(258.6835 170.863062)scale(0.1 -0.1)">
       <use xlink:href="#DejaVuSans-48"/>
      </g>
     </g>
    </g>
    <g id="ytick_2">
     <g id="line2d_5">
      <g>
       <use style="stroke:#000000;stroke-width:0.8;" x="272.046" xlink:href="#m04248922df" y="135.634197"/>
      </g>
     </g>
     <g id="text_6">
      <!-- 10 -->
      <defs>
       <path d="M 12.40625 8.296875 
L 28.515625 8.296875 
L 28.515625 63.921875 
L 10.984375 60.40625 
L 10.984375 69.390625 
L 28.421875 72.90625 
L 38.28125 72.90625 
L 38.28125 8.296875 
L 54.390625 8.296875 
L 54.390625 0 
L 12.40625 0 
z
" id="DejaVuSans-49"/>
      </defs>
      <g transform="translate(252.321 139.433415)scale(0.1 -0.1)">
       <use xlink:href="#DejaVuSans-49"/>
       <use x="63.623047" xlink:href="#DejaVuSans-48"/>
      </g>
     </g>
    </g>
    <g id="ytick_3">
     <g id="line2d_6">
      <g>
       <use style="stroke:#000000;stroke-width:0.8;" x="272.046" xlink:href="#m04248922df" y="104.20455"/>
      </g>
     </g>
     <g id="text_7">
      <!-- 20 -->
      <g transform="translate(252.321 108.003769)scale(0.1 -0.1)">
       <use xlink:href="#DejaVuSans-50"/>
       <use x="63.623047" xlink:href="#DejaVuSans-48"/>
      </g>
     </g>
    </g>
    <g id="ytick_4">
     <g id="line2d_7">
      <g>
       <use style="stroke:#000000;stroke-width:0.8;" x="272.046" xlink:href="#m04248922df" y="72.774903"/>
      </g>
     </g>
     <g id="text_8">
      <!-- 30 -->
      <defs>
       <path d="M 40.578125 39.3125 
Q 47.65625 37.796875 51.625 33 
Q 55.609375 28.21875 55.609375 21.1875 
Q 55.609375 10.40625 48.1875 4.484375 
Q 40.765625 -1.421875 27.09375 -1.421875 
Q 22.515625 -1.421875 17.65625 -0.515625 
Q 12.796875 0.390625 7.625 2.203125 
L 7.625 11.71875 
Q 11.71875 9.328125 16.59375 8.109375 
Q 21.484375 6.890625 26.8125 6.890625 
Q 36.078125 6.890625 40.9375 10.546875 
Q 45.796875 14.203125 45.796875 21.1875 
Q 45.796875 27.640625 41.28125 31.265625 
Q 36.765625 34.90625 28.71875 34.90625 
L 20.21875 34.90625 
L 20.21875 43.015625 
L 29.109375 43.015625 
Q 36.375 43.015625 40.234375 45.921875 
Q 44.09375 48.828125 44.09375 54.296875 
Q 44.09375 59.90625 40.109375 62.90625 
Q 36.140625 65.921875 28.71875 65.921875 
Q 24.65625 65.921875 20.015625 65.03125 
Q 15.375 64.15625 9.8125 62.3125 
L 9.8125 71.09375 
Q 15.4375 72.65625 20.34375 73.4375 
Q 25.25 74.21875 29.59375 74.21875 
Q 40.828125 74.21875 47.359375 69.109375 
Q 53.90625 64.015625 53.90625 55.328125 
Q 53.90625 49.265625 50.4375 45.09375 
Q 46.96875 40.921875 40.578125 39.3125 
z
" id="DejaVuSans-51"/>
      </defs>
      <g transform="translate(252.321 76.574122)scale(0.1 -0.1)">
       <use xlink:href="#DejaVuSans-51"/>
       <use x="63.623047" xlink:href="#DejaVuSans-48"/>
      </g>
     </g>
    </g>
    <g id="ytick_5">
     <g id="line2d_8">
      <g>
       <use style="stroke:#000000;stroke-width:0.8;" x="272.046" xlink:href="#m04248922df" y="41.345256"/>
      </g>
     </g>
     <g id="text_9">
      <!-- 40 -->
      <g transform="translate(252.321 45.144475)scale(0.1 -0.1)">
       <use xlink:href="#DejaVuSans-52"/>
       <use x="63.623047" xlink:href="#DejaVuSans-48"/>
      </g>
     </g>
    </g>
    <g id="text_10">
     <!-- Median -->
     <defs>
      <path d="M 9.421875 54.6875 
L 18.40625 54.6875 
L 18.40625 0 
L 9.421875 0 
z
M 9.421875 75.984375 
L 18.40625 75.984375 
L 18.40625 64.59375 
L 9.421875 64.59375 
z
" id="DejaVuSans-105"/>
     </defs>
     <g transform="translate(231.865375 124.95529)rotate(-90)scale(0.1 -0.1)">
      <use xlink:href="#DejaVuSans-77"/>
      <use x="86.279297" xlink:href="#DejaVuSans-101"/>
      <use x="147.802734" xlink:href="#DejaVuSans-100"/>
      <use x="211.279297" xlink:href="#DejaVuSans-105"/>
      <use x="239.0625" xlink:href="#DejaVuSans-97"/>
      <use x="300.341797" xlink:href="#DejaVuSans-110"/>
     </g>
     <!-- Connection Weight -->
     <defs>
      <path d="M 64.40625 67.28125 
L 64.40625 56.890625 
Q 59.421875 61.53125 53.78125 63.8125 
Q 48.140625 66.109375 41.796875 66.109375 
Q 29.296875 66.109375 22.65625 58.46875 
Q 16.015625 50.828125 16.015625 36.375 
Q 16.015625 21.96875 22.65625 14.328125 
Q 29.296875 6.6875 41.796875 6.6875 
Q 48.140625 6.6875 53.78125 8.984375 
Q 59.421875 11.28125 64.40625 15.921875 
L 64.40625 5.609375 
Q 59.234375 2.09375 53.4375 0.328125 
Q 47.65625 -1.421875 41.21875 -1.421875 
Q 24.65625 -1.421875 15.125 8.703125 
Q 5.609375 18.84375 5.609375 36.375 
Q 5.609375 53.953125 15.125 64.078125 
Q 24.65625 74.21875 41.21875 74.21875 
Q 47.75 74.21875 53.53125 72.484375 
Q 59.328125 70.75 64.40625 67.28125 
z
" id="DejaVuSans-67"/>
      <path d="M 30.609375 48.390625 
Q 23.390625 48.390625 19.1875 42.75 
Q 14.984375 37.109375 14.984375 27.296875 
Q 14.984375 17.484375 19.15625 11.84375 
Q 23.34375 6.203125 30.609375 6.203125 
Q 37.796875 6.203125 41.984375 11.859375 
Q 46.1875 17.53125 46.1875 27.296875 
Q 46.1875 37.015625 41.984375 42.703125 
Q 37.796875 48.390625 30.609375 48.390625 
z
M 30.609375 56 
Q 42.328125 56 49.015625 48.375 
Q 55.71875 40.765625 55.71875 27.296875 
Q 55.71875 13.875 49.015625 6.21875 
Q 42.328125 -1.421875 30.609375 -1.421875 
Q 18.84375 -1.421875 12.171875 6.21875 
Q 5.515625 13.875 5.515625 27.296875 
Q 5.515625 40.765625 12.171875 48.375 
Q 18.84375 56 30.609375 56 
z
" id="DejaVuSans-111"/>
      <path d="M 18.3125 70.21875 
L 18.3125 54.6875 
L 36.8125 54.6875 
L 36.8125 47.703125 
L 18.3125 47.703125 
L 18.3125 18.015625 
Q 18.3125 11.328125 20.140625 9.421875 
Q 21.96875 7.515625 27.59375 7.515625 
L 36.8125 7.515625 
L 36.8125 0 
L 27.59375 0 
Q 17.1875 0 13.234375 3.875 
Q 9.28125 7.765625 9.28125 18.015625 
L 9.28125 47.703125 
L 2.6875 47.703125 
L 2.6875 54.6875 
L 9.28125 54.6875 
L 9.28125 70.21875 
z
" id="DejaVuSans-116"/>
      <path d="M 3.328125 72.90625 
L 13.28125 72.90625 
L 28.609375 11.28125 
L 43.890625 72.90625 
L 54.984375 72.90625 
L 70.3125 11.28125 
L 85.59375 72.90625 
L 95.609375 72.90625 
L 77.296875 0 
L 64.890625 0 
L 49.515625 63.28125 
L 33.984375 0 
L 21.578125 0 
z
" id="DejaVuSans-87"/>
      <path d="M 45.40625 27.984375 
Q 45.40625 37.75 41.375 43.109375 
Q 37.359375 48.484375 30.078125 48.484375 
Q 22.859375 48.484375 18.828125 43.109375 
Q 14.796875 37.75 14.796875 27.984375 
Q 14.796875 18.265625 18.828125 12.890625 
Q 22.859375 7.515625 30.078125 7.515625 
Q 37.359375 7.515625 41.375 12.890625 
Q 45.40625 18.265625 45.40625 27.984375 
z
M 54.390625 6.78125 
Q 54.390625 -7.171875 48.1875 -13.984375 
Q 42 -20.796875 29.203125 -20.796875 
Q 24.46875 -20.796875 20.265625 -20.09375 
Q 16.0625 -19.390625 12.109375 -17.921875 
L 12.109375 -9.1875 
Q 16.0625 -11.328125 19.921875 -12.34375 
Q 23.78125 -13.375 27.78125 -13.375 
Q 36.625 -13.375 41.015625 -8.765625 
Q 45.40625 -4.15625 45.40625 5.171875 
L 45.40625 9.625 
Q 42.625 4.78125 38.28125 2.390625 
Q 33.9375 0 27.875 0 
Q 17.828125 0 11.671875 7.65625 
Q 5.515625 15.328125 5.515625 27.984375 
Q 5.515625 40.671875 11.671875 48.328125 
Q 17.828125 56 27.875 56 
Q 33.9375 56 38.28125 53.609375 
Q 42.625 51.21875 45.40625 46.390625 
L 45.40625 54.6875 
L 54.390625 54.6875 
z
" id="DejaVuSans-103"/>
      <path d="M 54.890625 33.015625 
L 54.890625 0 
L 45.90625 0 
L 45.90625 32.71875 
Q 45.90625 40.484375 42.875 44.328125 
Q 39.84375 48.1875 33.796875 48.1875 
Q 26.515625 48.1875 22.3125 43.546875 
Q 18.109375 38.921875 18.109375 30.90625 
L 18.109375 0 
L 9.078125 0 
L 9.078125 75.984375 
L 18.109375 75.984375 
L 18.109375 46.1875 
Q 21.34375 51.125 25.703125 53.5625 
Q 30.078125 56 35.796875 56 
Q 45.21875 56 50.046875 50.171875 
Q 54.890625 44.34375 54.890625 33.015625 
z
" id="DejaVuSans-104"/>
     </defs>
     <g transform="translate(243.063187 154.06779)rotate(-90)scale(0.1 -0.1)">
      <use xlink:href="#DejaVuSans-67"/>
      <use x="69.824219" xlink:href="#DejaVuSans-111"/>
      <use x="131.005859" xlink:href="#DejaVuSans-110"/>
      <use x="194.384766" xlink:href="#DejaVuSans-110"/>
      <use x="257.763672" xlink:href="#DejaVuSans-101"/>
      <use x="319.287109" xlink:href="#DejaVuSans-99"/>
      <use x="374.267578" xlink:href="#DejaVuSans-116"/>
      <use x="413.476562" xlink:href="#DejaVuSans-105"/>
      <use x="441.259766" xlink:href="#DejaVuSans-111"/>
      <use x="502.441406" xlink:href="#DejaVuSans-110"/>
      <use x="565.820312" xlink:href="#DejaVuSans-32"/>
      <use x="597.607422" xlink:href="#DejaVuSans-87"/>
      <use x="690.609375" xlink:href="#DejaVuSans-101"/>
      <use x="752.132812" xlink:href="#DejaVuSans-105"/>
      <use x="779.916016" xlink:href="#DejaVuSans-103"/>
      <use x="843.392578" xlink:href="#DejaVuSans-104"/>
      <use x="906.771484" xlink:href="#DejaVuSans-116"/>
     </g>
    </g>
   </g>
   <g id="line2d_9">
    <path clip-path="url(#p2a4362391e)" d="M 272.046 170.374042 
L 273.485565 169.246194 
L 274.92513 168.118346 
L 276.364695 166.990498 
L 277.80426 165.86265 
L 279.243825 164.734802 
L 280.68339 163.606954 
L 282.122955 162.479106 
L 283.56252 161.351258 
L 285.002086 160.223409 
L 286.441651 159.095561 
L 287.881216 157.967713 
L 289.320781 156.839865 
L 290.760346 155.712017 
L 292.199911 154.584169 
L 293.639476 153.456321 
L 295.079041 152.328473 
L 296.518606 151.200625 
L 297.958171 150.072777 
L 299.397736 148.944929 
L 300.837301 147.817081 
L 302.276866 146.689233 
L 303.716431 145.561385 
L 305.155996 144.433536 
L 306.595561 143.305688 
L 308.035127 142.17784 
L 309.474692 141.049992 
L 310.914257 139.922144 
L 312.353822 138.794296 
L 313.793387 137.666448 
L 315.232952 136.5386 
L 316.672517 135.410752 
L 318.112082 134.282904 
L 319.551647 133.155056 
L 320.991212 132.027208 
L 322.430777 130.89936 
L 323.870342 129.771512 
L 325.309907 128.643663 
L 326.749472 127.515815 
L 328.189037 126.387967 
L 329.628602 125.260119 
L 331.068168 124.132271 
L 332.507733 123.004423 
L 333.947298 121.876575 
L 335.386863 120.748727 
L 336.826428 119.620879 
L 338.265993 118.493031 
L 339.705558 117.365183 
L 341.145123 116.237335 
L 342.584688 115.109487 
L 344.024253 113.981639 
L 345.463818 112.85379 
L 346.903383 111.725942 
L 348.342948 110.598094 
L 349.782513 109.470246 
L 351.222078 108.342398 
L 352.661643 107.21455 
L 354.101209 106.086702 
L 355.540774 104.958854 
L 356.980339 103.831006 
L 358.419904 102.703158 
L 359.859469 101.57531 
L 361.299034 100.447462 
L 362.738599 99.319614 
L 364.178164 98.191766 
L 365.617729 97.063917 
L 367.057294 95.936069 
L 368.496859 94.808221 
L 369.936424 93.680373 
L 371.375989 92.552525 
L 372.815554 91.424677 
L 374.255119 90.296829 
L 375.694684 89.168981 
L 377.13425 88.041133 
L 378.573815 86.913285 
L 380.01338 85.785437 
L 381.452945 84.657589 
L 382.89251 83.529741 
L 384.332075 82.401893 
L 385.77164 81.274044 
L 387.211205 80.146196 
L 388.65077 79.018348 
L 390.090335 77.8905 
L 391.5299 76.762652 
L 392.969465 75.634804 
L 394.40903 74.506956 
L 395.848595 73.379108 
L 397.28816 72.25126 
L 398.727725 71.123412 
L 400.167291 69.995564 
L 401.606856 68.867716 
L 403.046421 67.739868 
L 404.485986 66.61202 
L 405.925551 65.484171 
L 407.365116 64.356323 
L 408.804681 63.228475 
L 410.244246 62.100627 
L 411.683811 60.972779 
L 413.123376 59.844931 
L 414.562941 58.717083 
" style="fill:none;stroke:#ff0000;stroke-linecap:square;stroke-width:2.25;"/>
   </g>
   <g id="patch_3">
    <path d="M 272.046 179.44 
L 272.046 34.097143 
" style="fill:none;stroke:#000000;stroke-linecap:square;stroke-linejoin:miter;stroke-width:0.8;"/>
   </g>
   <g id="patch_4">
    <path d="M 414.562941 179.44 
L 414.562941 34.097143 
" style="fill:none;stroke:#000000;stroke-linecap:square;stroke-linejoin:miter;stroke-width:0.8;"/>
   </g>
   <g id="patch_5">
    <path d="M 272.046 179.44 
L 414.562941 179.44 
" style="fill:none;stroke:#000000;stroke-linecap:square;stroke-linejoin:miter;stroke-width:0.8;"/>
   </g>
   <g id="patch_6">
    <path d="M 272.046 34.097143 
L 414.562941 34.097143 
" style="fill:none;stroke:#000000;stroke-linecap:square;stroke-linejoin:miter;stroke-width:0.8;"/>
   </g>
   <g id="text_11">
    <!-- b -->
    <defs>
     <path d="M 37.5 11.28125 
Q 43.109375 11.28125 46.0625 15.375 
Q 49.03125 19.484375 49.03125 27.296875 
Q 49.03125 35.109375 46.0625 39.203125 
Q 43.109375 43.3125 37.5 43.3125 
Q 31.890625 43.3125 28.875 39.1875 
Q 25.875 35.0625 25.875 27.296875 
Q 25.875 19.53125 28.875 15.40625 
Q 31.890625 11.28125 37.5 11.28125 
z
M 25.875 46.6875 
Q 29.5 51.46875 33.890625 53.734375 
Q 38.28125 56 44 56 
Q 54.109375 56 60.59375 47.96875 
Q 67.09375 39.9375 67.09375 27.296875 
Q 67.09375 14.65625 60.59375 6.609375 
Q 54.109375 -1.421875 44 -1.421875 
Q 38.28125 -1.421875 33.890625 0.84375 
Q 29.5 3.125 25.875 7.90625 
L 25.875 0 
L 8.40625 0 
L 8.40625 75.984375 
L 25.875 75.984375 
z
" id="DejaVuSans-Bold-98"/>
    </defs>
    <g transform="translate(217.838418 17.186071)scale(0.16 -0.16)">
     <use xlink:href="#DejaVuSans-Bold-98"/>
    </g>
   </g>
   <g id="legend_1">
    <g id="patch_7">
     <path d="M 304.694191 52.239643 
L 408.962941 52.239643 
Q 410.562941 52.239643 410.562941 50.639643 
L 410.562941 39.697143 
Q 410.562941 38.097143 408.962941 38.097143 
L 304.694191 38.097143 
Q 303.094191 38.097143 303.094191 39.697143 
L 303.094191 50.639643 
Q 303.094191 52.239643 304.694191 52.239643 
z
" style="fill:#ffffff;opacity:0.8;stroke:#cccccc;stroke-linejoin:miter;"/>
    </g>
    <g id="line2d_10">
     <path d="M 306.294191 44.575893 
L 322.294191 44.575893 
" style="fill:none;stroke:#ff0000;stroke-linecap:square;stroke-width:2.25;"/>
    </g>
    <g id="line2d_11"/>
    <g id="text_12">
     <!-- Pearson's r = 0.734 -->
     <defs>
      <path d="M 19.671875 64.796875 
L 19.671875 37.40625 
L 32.078125 37.40625 
Q 38.96875 37.40625 42.71875 40.96875 
Q 46.484375 44.53125 46.484375 51.125 
Q 46.484375 57.671875 42.71875 61.234375 
Q 38.96875 64.796875 32.078125 64.796875 
z
M 9.8125 72.90625 
L 32.078125 72.90625 
Q 44.34375 72.90625 50.609375 67.359375 
Q 56.890625 61.8125 56.890625 51.125 
Q 56.890625 40.328125 50.609375 34.8125 
Q 44.34375 29.296875 32.078125 29.296875 
L 19.671875 29.296875 
L 19.671875 0 
L 9.8125 0 
z
" id="DejaVuSans-80"/>
      <path d="M 41.109375 46.296875 
Q 39.59375 47.171875 37.8125 47.578125 
Q 36.03125 48 33.890625 48 
Q 26.265625 48 22.1875 43.046875 
Q 18.109375 38.09375 18.109375 28.8125 
L 18.109375 0 
L 9.078125 0 
L 9.078125 54.6875 
L 18.109375 54.6875 
L 18.109375 46.1875 
Q 20.953125 51.171875 25.484375 53.578125 
Q 30.03125 56 36.53125 56 
Q 37.453125 56 38.578125 55.875 
Q 39.703125 55.765625 41.0625 55.515625 
z
" id="DejaVuSans-114"/>
      <path d="M 44.28125 53.078125 
L 44.28125 44.578125 
Q 40.484375 46.53125 36.375 47.5 
Q 32.28125 48.484375 27.875 48.484375 
Q 21.1875 48.484375 17.84375 46.4375 
Q 14.5 44.390625 14.5 40.28125 
Q 14.5 37.15625 16.890625 35.375 
Q 19.28125 33.59375 26.515625 31.984375 
L 29.59375 31.296875 
Q 39.15625 29.25 43.1875 25.515625 
Q 47.21875 21.78125 47.21875 15.09375 
Q 47.21875 7.46875 41.1875 3.015625 
Q 35.15625 -1.421875 24.609375 -1.421875 
Q 20.21875 -1.421875 15.453125 -0.5625 
Q 10.6875 0.296875 5.421875 2 
L 5.421875 11.28125 
Q 10.40625 8.6875 15.234375 7.390625 
Q 20.0625 6.109375 24.8125 6.109375 
Q 31.15625 6.109375 34.5625 8.28125 
Q 37.984375 10.453125 37.984375 14.40625 
Q 37.984375 18.0625 35.515625 20.015625 
Q 33.0625 21.96875 24.703125 23.78125 
L 21.578125 24.515625 
Q 13.234375 26.265625 9.515625 29.90625 
Q 5.8125 33.546875 5.8125 39.890625 
Q 5.8125 47.609375 11.28125 51.796875 
Q 16.75 56 26.8125 56 
Q 31.78125 56 36.171875 55.265625 
Q 40.578125 54.546875 44.28125 53.078125 
z
" id="DejaVuSans-115"/>
      <path d="M 17.921875 72.90625 
L 17.921875 45.796875 
L 9.625 45.796875 
L 9.625 72.90625 
z
" id="DejaVuSans-39"/>
      <path d="M 10.59375 45.40625 
L 73.1875 45.40625 
L 73.1875 37.203125 
L 10.59375 37.203125 
z
M 10.59375 25.484375 
L 73.1875 25.484375 
L 73.1875 17.1875 
L 10.59375 17.1875 
z
" id="DejaVuSans-61"/>
      <path d="M 10.6875 12.40625 
L 21 12.40625 
L 21 0 
L 10.6875 0 
z
" id="DejaVuSans-46"/>
      <path d="M 8.203125 72.90625 
L 55.078125 72.90625 
L 55.078125 68.703125 
L 28.609375 0 
L 18.3125 0 
L 43.21875 64.59375 
L 8.203125 64.59375 
z
" id="DejaVuSans-55"/>
     </defs>
     <g transform="translate(328.694191 47.375893)scale(0.08 -0.08)">
      <use xlink:href="#DejaVuSans-80"/>
      <use x="56.677734" xlink:href="#DejaVuSans-101"/>
      <use x="118.201172" xlink:href="#DejaVuSans-97"/>
      <use x="179.480469" xlink:href="#DejaVuSans-114"/>
      <use x="220.59375" xlink:href="#DejaVuSans-115"/>
      <use x="272.693359" xlink:href="#DejaVuSans-111"/>
      <use x="333.875" xlink:href="#DejaVuSans-110"/>
      <use x="397.253906" xlink:href="#DejaVuSans-39"/>
      <use x="424.744141" xlink:href="#DejaVuSans-115"/>
      <use x="476.84375" xlink:href="#DejaVuSans-32"/>
      <use x="508.630859" xlink:href="#DejaVuSans-114"/>
      <use x="549.744141" xlink:href="#DejaVuSans-32"/>
      <use x="581.53125" xlink:href="#DejaVuSans-61"/>
      <use x="665.320312" xlink:href="#DejaVuSans-32"/>
      <use x="697.107422" xlink:href="#DejaVuSans-48"/>
      <use x="760.730469" xlink:href="#DejaVuSans-46"/>
      <use x="792.517578" xlink:href="#DejaVuSans-55"/>
      <use x="856.140625" xlink:href="#DejaVuSans-51"/>
      <use x="919.763672" xlink:href="#DejaVuSans-52"/>
     </g>
    </g>
   </g>
  </g>
  <g id="axes_2">
   <g id="patch_8">
    <path d="M 60.456 390.04 
L 202.972941 390.04 
L 202.972941 244.697143 
L 60.456 244.697143 
z
" style="fill:#ffffff;"/>
   </g>
   <g id="matplotlib.axis_3">
    <g id="xtick_4">
     <g id="line2d_12">
      <g>
       <use style="stroke:#000000;stroke-width:0.8;" x="61.853225" xlink:href="#m868e17cce1" y="390.04"/>
      </g>
     </g>
     <g id="text_13">
      <!-- 0.0 -->
      <g transform="translate(53.901662 404.638438)scale(0.1 -0.1)">
       <use xlink:href="#DejaVuSans-48"/>
       <use x="63.623047" xlink:href="#DejaVuSans-46"/>
       <use x="95.410156" xlink:href="#DejaVuSans-48"/>
      </g>
     </g>
    </g>
    <g id="xtick_5">
     <g id="line2d_13">
      <g>
       <use style="stroke:#000000;stroke-width:0.8;" x="131.714471" xlink:href="#m868e17cce1" y="390.04"/>
      </g>
     </g>
     <g id="text_14">
      <!-- 0.5 -->
      <defs>
       <path d="M 10.796875 72.90625 
L 49.515625 72.90625 
L 49.515625 64.59375 
L 19.828125 64.59375 
L 19.828125 46.734375 
Q 21.96875 47.46875 24.109375 47.828125 
Q 26.265625 48.1875 28.421875 48.1875 
Q 40.625 48.1875 47.75 41.5 
Q 54.890625 34.8125 54.890625 23.390625 
Q 54.890625 11.625 47.5625 5.09375 
Q 40.234375 -1.421875 26.90625 -1.421875 
Q 22.3125 -1.421875 17.546875 -0.640625 
Q 12.796875 0.140625 7.71875 1.703125 
L 7.71875 11.625 
Q 12.109375 9.234375 16.796875 8.0625 
Q 21.484375 6.890625 26.703125 6.890625 
Q 35.15625 6.890625 40.078125 11.328125 
Q 45.015625 15.765625 45.015625 23.390625 
Q 45.015625 31 40.078125 35.4375 
Q 35.15625 39.890625 26.703125 39.890625 
Q 22.75 39.890625 18.8125 39.015625 
Q 14.890625 38.140625 10.796875 36.28125 
z
" id="DejaVuSans-53"/>
      </defs>
      <g transform="translate(123.762908 404.638438)scale(0.1 -0.1)">
       <use xlink:href="#DejaVuSans-48"/>
       <use x="63.623047" xlink:href="#DejaVuSans-46"/>
       <use x="95.410156" xlink:href="#DejaVuSans-53"/>
      </g>
     </g>
    </g>
    <g id="xtick_6">
     <g id="line2d_14">
      <g>
       <use style="stroke:#000000;stroke-width:0.8;" x="201.575716" xlink:href="#m868e17cce1" y="390.04"/>
      </g>
     </g>
     <g id="text_15">
      <!-- 1.0 -->
      <g transform="translate(193.624154 404.638438)scale(0.1 -0.1)">
       <use xlink:href="#DejaVuSans-49"/>
       <use x="63.623047" xlink:href="#DejaVuSans-46"/>
       <use x="95.410156" xlink:href="#DejaVuSans-48"/>
      </g>
     </g>
    </g>
    <g id="text_16">
     <!-- False Positive Rate -->
     <defs>
      <path d="M 9.8125 72.90625 
L 51.703125 72.90625 
L 51.703125 64.59375 
L 19.671875 64.59375 
L 19.671875 43.109375 
L 48.578125 43.109375 
L 48.578125 34.8125 
L 19.671875 34.8125 
L 19.671875 0 
L 9.8125 0 
z
" id="DejaVuSans-70"/>
      <path d="M 2.984375 54.6875 
L 12.5 54.6875 
L 29.59375 8.796875 
L 46.6875 54.6875 
L 56.203125 54.6875 
L 35.6875 0 
L 23.484375 0 
z
" id="DejaVuSans-118"/>
      <path d="M 44.390625 34.1875 
Q 47.5625 33.109375 50.5625 29.59375 
Q 53.5625 26.078125 56.59375 19.921875 
L 66.609375 0 
L 56 0 
L 46.6875 18.703125 
Q 43.0625 26.03125 39.671875 28.421875 
Q 36.28125 30.8125 30.421875 30.8125 
L 19.671875 30.8125 
L 19.671875 0 
L 9.8125 0 
L 9.8125 72.90625 
L 32.078125 72.90625 
Q 44.578125 72.90625 50.734375 67.671875 
Q 56.890625 62.453125 56.890625 51.90625 
Q 56.890625 45.015625 53.6875 40.46875 
Q 50.484375 35.9375 44.390625 34.1875 
z
M 19.671875 64.796875 
L 19.671875 38.921875 
L 32.078125 38.921875 
Q 39.203125 38.921875 42.84375 42.21875 
Q 46.484375 45.515625 46.484375 51.90625 
Q 46.484375 58.296875 42.84375 61.546875 
Q 39.203125 64.796875 32.078125 64.796875 
z
" id="DejaVuSans-82"/>
     </defs>
     <g transform="translate(85.248064 418.316562)scale(0.1 -0.1)">
      <use xlink:href="#DejaVuSans-70"/>
      <use x="48.394531" xlink:href="#DejaVuSans-97"/>
      <use x="109.673828" xlink:href="#DejaVuSans-108"/>
      <use x="137.457031" xlink:href="#DejaVuSans-115"/>
      <use x="189.556641" xlink:href="#DejaVuSans-101"/>
      <use x="251.080078" xlink:href="#DejaVuSans-32"/>
      <use x="282.867188" xlink:href="#DejaVuSans-80"/>
      <use x="339.544922" xlink:href="#DejaVuSans-111"/>
      <use x="400.726562" xlink:href="#DejaVuSans-115"/>
      <use x="452.826172" xlink:href="#DejaVuSans-105"/>
      <use x="480.609375" xlink:href="#DejaVuSans-116"/>
      <use x="519.818359" xlink:href="#DejaVuSans-105"/>
      <use x="547.601562" xlink:href="#DejaVuSans-118"/>
      <use x="606.78125" xlink:href="#DejaVuSans-101"/>
      <use x="668.304688" xlink:href="#DejaVuSans-32"/>
      <use x="700.091797" xlink:href="#DejaVuSans-82"/>
      <use x="767.324219" xlink:href="#DejaVuSans-97"/>
      <use x="828.603516" xlink:href="#DejaVuSans-116"/>
      <use x="867.8125" xlink:href="#DejaVuSans-101"/>
     </g>
    </g>
   </g>
   <g id="matplotlib.axis_4">
    <g id="ytick_6">
     <g id="line2d_15">
      <g>
       <use style="stroke:#000000;stroke-width:0.8;" x="60.456" xlink:href="#m04248922df" y="388.61507"/>
      </g>
     </g>
     <g id="text_17">
      <!-- 0.0 -->
      <g transform="translate(37.552875 392.414289)scale(0.1 -0.1)">
       <use xlink:href="#DejaVuSans-48"/>
       <use x="63.623047" xlink:href="#DejaVuSans-46"/>
       <use x="95.410156" xlink:href="#DejaVuSans-48"/>
      </g>
     </g>
    </g>
    <g id="ytick_7">
     <g id="line2d_16">
      <g>
       <use style="stroke:#000000;stroke-width:0.8;" x="60.456" xlink:href="#m04248922df" y="317.368571"/>
      </g>
     </g>
     <g id="text_18">
      <!-- 0.5 -->
      <g transform="translate(37.552875 321.16779)scale(0.1 -0.1)">
       <use xlink:href="#DejaVuSans-48"/>
       <use x="63.623047" xlink:href="#DejaVuSans-46"/>
       <use x="95.410156" xlink:href="#DejaVuSans-53"/>
      </g>
     </g>
    </g>
    <g id="ytick_8">
     <g id="line2d_17">
      <g>
       <use style="stroke:#000000;stroke-width:0.8;" x="60.456" xlink:href="#m04248922df" y="246.122073"/>
      </g>
     </g>
     <g id="text_19">
      <!-- 1.0 -->
      <g transform="translate(37.552875 249.921292)scale(0.1 -0.1)">
       <use xlink:href="#DejaVuSans-49"/>
       <use x="63.623047" xlink:href="#DejaVuSans-46"/>
       <use x="95.410156" xlink:href="#DejaVuSans-48"/>
      </g>
     </g>
    </g>
    <g id="text_20">
     <!-- True Positive Rate -->
     <defs>
      <path d="M -0.296875 72.90625 
L 61.375 72.90625 
L 61.375 64.59375 
L 35.5 64.59375 
L 35.5 0 
L 25.59375 0 
L 25.59375 64.59375 
L -0.296875 64.59375 
z
" id="DejaVuSans-84"/>
      <path d="M 8.5 21.578125 
L 8.5 54.6875 
L 17.484375 54.6875 
L 17.484375 21.921875 
Q 17.484375 14.15625 20.5 10.265625 
Q 23.53125 6.390625 29.59375 6.390625 
Q 36.859375 6.390625 41.078125 11.03125 
Q 45.3125 15.671875 45.3125 23.6875 
L 45.3125 54.6875 
L 54.296875 54.6875 
L 54.296875 0 
L 45.3125 0 
L 45.3125 8.40625 
Q 42.046875 3.421875 37.71875 1 
Q 33.40625 -1.421875 27.6875 -1.421875 
Q 18.265625 -1.421875 13.375 4.4375 
Q 8.5 10.296875 8.5 21.578125 
z
M 31.109375 56 
z
" id="DejaVuSans-117"/>
     </defs>
     <g transform="translate(31.473187 361.898259)rotate(-90)scale(0.1 -0.1)">
      <use xlink:href="#DejaVuSans-84"/>
      <use x="46.333984" xlink:href="#DejaVuSans-114"/>
      <use x="87.447266" xlink:href="#DejaVuSans-117"/>
      <use x="150.826172" xlink:href="#DejaVuSans-101"/>
      <use x="212.349609" xlink:href="#DejaVuSans-32"/>
      <use x="244.136719" xlink:href="#DejaVuSans-80"/>
      <use x="300.814453" xlink:href="#DejaVuSans-111"/>
      <use x="361.996094" xlink:href="#DejaVuSans-115"/>
      <use x="414.095703" xlink:href="#DejaVuSans-105"/>
      <use x="441.878906" xlink:href="#DejaVuSans-116"/>
      <use x="481.087891" xlink:href="#DejaVuSans-105"/>
      <use x="508.871094" xlink:href="#DejaVuSans-118"/>
      <use x="568.050781" xlink:href="#DejaVuSans-101"/>
      <use x="629.574219" xlink:href="#DejaVuSans-32"/>
      <use x="661.361328" xlink:href="#DejaVuSans-82"/>
      <use x="728.59375" xlink:href="#DejaVuSans-97"/>
      <use x="789.873047" xlink:href="#DejaVuSans-116"/>
      <use x="829.082031" xlink:href="#DejaVuSans-101"/>
     </g>
    </g>
   </g>
   <g id="line2d_18">
    <path clip-path="url(#pb4b69784a0)" d="M 61.853225 388.61507 
L 61.853225 387.21808 
L 61.853225 353.690316 
L 65.028736 353.690316 
L 65.028736 352.293326 
L 68.204247 352.293326 
L 68.204247 343.911385 
L 71.379758 343.911385 
L 71.379758 338.323424 
L 74.55527 338.323424 
L 74.55527 324.353522 
L 77.730781 324.353522 
L 77.730781 322.956532 
L 80.906292 322.956532 
L 80.906292 321.559542 
L 87.257314 321.559542 
L 87.257314 314.574591 
L 96.783848 314.574591 
L 96.783848 306.19265 
L 99.959359 306.19265 
L 99.959359 303.39867 
L 103.13487 303.39867 
L 103.13487 300.604689 
L 106.310381 300.604689 
L 106.310381 293.619739 
L 109.485892 293.619739 
L 109.485892 290.825758 
L 112.661404 290.825758 
L 112.661404 281.046827 
L 115.836915 281.046827 
L 115.836915 278.252847 
L 122.187937 278.252847 
L 122.187937 271.267896 
L 131.714471 271.267896 
L 131.714471 267.076925 
L 134.889982 267.076925 
L 134.889982 265.679935 
L 138.065493 265.679935 
L 138.065493 264.282945 
L 144.416515 264.282945 
L 144.416515 254.504014 
L 150.767538 254.504014 
L 150.767538 253.107024 
L 153.943049 253.107024 
L 153.943049 251.710034 
L 163.469582 251.710034 
L 163.469582 250.313043 
L 169.820605 250.313043 
L 169.820605 248.916053 
L 179.347138 248.916053 
L 179.347138 247.519063 
L 188.873672 247.519063 
L 188.873672 246.122073 
L 201.575716 246.122073 
" style="fill:none;stroke:#000000;stroke-linecap:square;stroke-width:1.5;"/>
   </g>
   <g id="line2d_19">
    <path clip-path="url(#pb4b69784a0)" d="M 61.853225 388.61507 
L 201.575716 246.122073 
" style="fill:none;stroke:#ff0000;stroke-dasharray:3.7,1.6;stroke-dashoffset:0;stroke-opacity:0.5;"/>
   </g>
   <g id="patch_9">
    <path d="M 60.456 390.04 
L 60.456 244.697143 
" style="fill:none;stroke:#000000;stroke-linecap:square;stroke-linejoin:miter;stroke-width:0.8;"/>
   </g>
   <g id="patch_10">
    <path d="M 202.972941 390.04 
L 202.972941 244.697143 
" style="fill:none;stroke:#000000;stroke-linecap:square;stroke-linejoin:miter;stroke-width:0.8;"/>
   </g>
   <g id="patch_11">
    <path d="M 60.456 390.04 
L 202.972941 390.04 
" style="fill:none;stroke:#000000;stroke-linecap:square;stroke-linejoin:miter;stroke-width:0.8;"/>
   </g>
   <g id="patch_12">
    <path d="M 60.456 244.697143 
L 202.972941 244.697143 
" style="fill:none;stroke:#000000;stroke-linecap:square;stroke-linejoin:miter;stroke-width:0.8;"/>
   </g>
   <g id="text_21">
    <!-- c -->
    <defs>
     <path d="M 52.59375 52.984375 
L 52.59375 38.71875 
Q 49.03125 41.15625 45.4375 42.328125 
Q 41.84375 43.5 37.984375 43.5 
Q 30.671875 43.5 26.59375 39.234375 
Q 22.515625 34.96875 22.515625 27.296875 
Q 22.515625 19.625 26.59375 15.34375 
Q 30.671875 11.078125 37.984375 11.078125 
Q 42.09375 11.078125 45.78125 12.296875 
Q 49.46875 13.53125 52.59375 15.921875 
L 52.59375 1.609375 
Q 48.484375 0.09375 44.265625 -0.65625 
Q 40.046875 -1.421875 35.796875 -1.421875 
Q 21 -1.421875 12.640625 6.171875 
Q 4.296875 13.765625 4.296875 27.296875 
Q 4.296875 40.828125 12.640625 48.40625 
Q 21 56 35.796875 56 
Q 40.09375 56 44.265625 55.25 
Q 48.4375 54.5 52.59375 52.984375 
z
" id="DejaVuSans-Bold-99"/>
    </defs>
    <g transform="translate(8.215918 227.786071)scale(0.16 -0.16)">
     <use xlink:href="#DejaVuSans-Bold-99"/>
    </g>
   </g>
   <g id="legend_2">
    <g id="patch_13">
     <path d="M 129.571379 387.04 
L 198.772941 387.04 
Q 199.972941 387.04 199.972941 385.84 
L 199.972941 368.82625 
Q 199.972941 367.62625 198.772941 367.62625 
L 129.571379 367.62625 
Q 128.371379 367.62625 128.371379 368.82625 
L 128.371379 385.84 
Q 128.371379 387.04 129.571379 387.04 
z
" style="fill:#ffffff;opacity:0.8;stroke:#cccccc;stroke-linejoin:miter;"/>
    </g>
    <g id="line2d_20">
     <path d="M 130.771379 372.485312 
L 142.771379 372.485312 
" style="fill:none;stroke:#000000;stroke-linecap:square;stroke-width:1.5;"/>
    </g>
    <g id="line2d_21"/>
    <g id="text_22">
     <!-- ROC-AUC=0.762 -->
     <defs>
      <path d="M 39.40625 66.21875 
Q 28.65625 66.21875 22.328125 58.203125 
Q 16.015625 50.203125 16.015625 36.375 
Q 16.015625 22.609375 22.328125 14.59375 
Q 28.65625 6.59375 39.40625 6.59375 
Q 50.140625 6.59375 56.421875 14.59375 
Q 62.703125 22.609375 62.703125 36.375 
Q 62.703125 50.203125 56.421875 58.203125 
Q 50.140625 66.21875 39.40625 66.21875 
z
M 39.40625 74.21875 
Q 54.734375 74.21875 63.90625 63.9375 
Q 73.09375 53.65625 73.09375 36.375 
Q 73.09375 19.140625 63.90625 8.859375 
Q 54.734375 -1.421875 39.40625 -1.421875 
Q 24.03125 -1.421875 14.8125 8.828125 
Q 5.609375 19.09375 5.609375 36.375 
Q 5.609375 53.65625 14.8125 63.9375 
Q 24.03125 74.21875 39.40625 74.21875 
z
" id="DejaVuSans-79"/>
      <path d="M 4.890625 31.390625 
L 31.203125 31.390625 
L 31.203125 23.390625 
L 4.890625 23.390625 
z
" id="DejaVuSans-45"/>
      <path d="M 8.6875 72.90625 
L 18.609375 72.90625 
L 18.609375 28.609375 
Q 18.609375 16.890625 22.84375 11.734375 
Q 27.09375 6.59375 36.625 6.59375 
Q 46.09375 6.59375 50.34375 11.734375 
Q 54.59375 16.890625 54.59375 28.609375 
L 54.59375 72.90625 
L 64.5 72.90625 
L 64.5 27.390625 
Q 64.5 13.140625 57.4375 5.859375 
Q 50.390625 -1.421875 36.625 -1.421875 
Q 22.796875 -1.421875 15.734375 5.859375 
Q 8.6875 13.140625 8.6875 27.390625 
z
" id="DejaVuSans-85"/>
      <path d="M 33.015625 40.375 
Q 26.375 40.375 22.484375 35.828125 
Q 18.609375 31.296875 18.609375 23.390625 
Q 18.609375 15.53125 22.484375 10.953125 
Q 26.375 6.390625 33.015625 6.390625 
Q 39.65625 6.390625 43.53125 10.953125 
Q 47.40625 15.53125 47.40625 23.390625 
Q 47.40625 31.296875 43.53125 35.828125 
Q 39.65625 40.375 33.015625 40.375 
z
M 52.59375 71.296875 
L 52.59375 62.3125 
Q 48.875 64.0625 45.09375 64.984375 
Q 41.3125 65.921875 37.59375 65.921875 
Q 27.828125 65.921875 22.671875 59.328125 
Q 17.53125 52.734375 16.796875 39.40625 
Q 19.671875 43.65625 24.015625 45.921875 
Q 28.375 48.1875 33.59375 48.1875 
Q 44.578125 48.1875 50.953125 41.515625 
Q 57.328125 34.859375 57.328125 23.390625 
Q 57.328125 12.15625 50.6875 5.359375 
Q 44.046875 -1.421875 33.015625 -1.421875 
Q 20.359375 -1.421875 13.671875 8.265625 
Q 6.984375 17.96875 6.984375 36.375 
Q 6.984375 53.65625 15.1875 63.9375 
Q 23.390625 74.21875 37.203125 74.21875 
Q 40.921875 74.21875 44.703125 73.484375 
Q 48.484375 72.75 52.59375 71.296875 
z
" id="DejaVuSans-54"/>
     </defs>
     <g transform="translate(147.571379 374.585312)scale(0.06 -0.06)">
      <use xlink:href="#DejaVuSans-82"/>
      <use x="69.482422" xlink:href="#DejaVuSans-79"/>
      <use x="148.193359" xlink:href="#DejaVuSans-67"/>
      <use x="218.017578" xlink:href="#DejaVuSans-45"/>
      <use x="251.851562" xlink:href="#DejaVuSans-65"/>
      <use x="320.259766" xlink:href="#DejaVuSans-85"/>
      <use x="393.453125" xlink:href="#DejaVuSans-67"/>
      <use x="463.277344" xlink:href="#DejaVuSans-61"/>
      <use x="547.066406" xlink:href="#DejaVuSans-48"/>
      <use x="610.689453" xlink:href="#DejaVuSans-46"/>
      <use x="642.476562" xlink:href="#DejaVuSans-55"/>
      <use x="706.099609" xlink:href="#DejaVuSans-54"/>
      <use x="769.722656" xlink:href="#DejaVuSans-50"/>
     </g>
    </g>
    <g id="line2d_22">
     <path d="M 130.771379 381.292187 
L 142.771379 381.292187 
" style="fill:none;stroke:#ff0000;stroke-dasharray:3.7,1.6;stroke-dashoffset:0;stroke-opacity:0.5;"/>
    </g>
    <g id="line2d_23"/>
    <g id="text_23">
     <!-- Chance -->
     <g transform="translate(147.571379 383.392187)scale(0.06 -0.06)">
      <use xlink:href="#DejaVuSans-67"/>
      <use x="69.824219" xlink:href="#DejaVuSans-104"/>
      <use x="133.203125" xlink:href="#DejaVuSans-97"/>
      <use x="194.482422" xlink:href="#DejaVuSans-110"/>
      <use x="257.861328" xlink:href="#DejaVuSans-99"/>
      <use x="312.841797" xlink:href="#DejaVuSans-101"/>
     </g>
    </g>
   </g>
  </g>
  <g id="axes_3">
   <g id="patch_14">
    <path d="M 272.046 390.04 
L 414.562941 390.04 
L 414.562941 244.697143 
L 272.046 244.697143 
z
" style="fill:#ffffff;"/>
   </g>
   <g id="matplotlib.axis_5">
    <g id="xtick_7">
     <g id="line2d_24">
      <g>
       <use style="stroke:#000000;stroke-width:0.8;" x="273.443225" xlink:href="#m868e17cce1" y="390.04"/>
      </g>
     </g>
     <g id="text_24">
      <!-- 0.0 -->
      <g transform="translate(265.491662 404.638438)scale(0.1 -0.1)">
       <use xlink:href="#DejaVuSans-48"/>
       <use x="63.623047" xlink:href="#DejaVuSans-46"/>
       <use x="95.410156" xlink:href="#DejaVuSans-48"/>
      </g>
     </g>
    </g>
    <g id="xtick_8">
     <g id="line2d_25">
      <g>
       <use style="stroke:#000000;stroke-width:0.8;" x="343.304471" xlink:href="#m868e17cce1" y="390.04"/>
      </g>
     </g>
     <g id="text_25">
      <!-- 0.5 -->
      <g transform="translate(335.352908 404.638438)scale(0.1 -0.1)">
       <use xlink:href="#DejaVuSans-48"/>
       <use x="63.623047" xlink:href="#DejaVuSans-46"/>
       <use x="95.410156" xlink:href="#DejaVuSans-53"/>
      </g>
     </g>
    </g>
    <g id="xtick_9">
     <g id="line2d_26">
      <g>
       <use style="stroke:#000000;stroke-width:0.8;" x="413.165716" xlink:href="#m868e17cce1" y="390.04"/>
      </g>
     </g>
     <g id="text_26">
      <!-- 1.0 -->
      <g transform="translate(405.214154 404.638438)scale(0.1 -0.1)">
       <use xlink:href="#DejaVuSans-49"/>
       <use x="63.623047" xlink:href="#DejaVuSans-46"/>
       <use x="95.410156" xlink:href="#DejaVuSans-48"/>
      </g>
     </g>
    </g>
    <g id="text_27">
     <!-- Recall -->
     <g transform="translate(328.387283 418.316562)scale(0.1 -0.1)">
      <use xlink:href="#DejaVuSans-82"/>
      <use x="64.982422" xlink:href="#DejaVuSans-101"/>
      <use x="126.505859" xlink:href="#DejaVuSans-99"/>
      <use x="181.486328" xlink:href="#DejaVuSans-97"/>
      <use x="242.765625" xlink:href="#DejaVuSans-108"/>
      <use x="270.548828" xlink:href="#DejaVuSans-108"/>
     </g>
    </g>
   </g>
   <g id="matplotlib.axis_6">
    <g id="ytick_9">
     <g id="line2d_27">
      <g>
       <use style="stroke:#000000;stroke-width:0.8;" x="272.046" xlink:href="#m04248922df" y="388.61507"/>
      </g>
     </g>
     <g id="text_28">
      <!-- 0.0 -->
      <g transform="translate(249.142875 392.414289)scale(0.1 -0.1)">
       <use xlink:href="#DejaVuSans-48"/>
       <use x="63.623047" xlink:href="#DejaVuSans-46"/>
       <use x="95.410156" xlink:href="#DejaVuSans-48"/>
      </g>
     </g>
    </g>
    <g id="ytick_10">
     <g id="line2d_28">
      <g>
       <use style="stroke:#000000;stroke-width:0.8;" x="272.046" xlink:href="#m04248922df" y="317.368571"/>
      </g>
     </g>
     <g id="text_29">
      <!-- 0.5 -->
      <g transform="translate(249.142875 321.16779)scale(0.1 -0.1)">
       <use xlink:href="#DejaVuSans-48"/>
       <use x="63.623047" xlink:href="#DejaVuSans-46"/>
       <use x="95.410156" xlink:href="#DejaVuSans-53"/>
      </g>
     </g>
    </g>
    <g id="ytick_11">
     <g id="line2d_29">
      <g>
       <use style="stroke:#000000;stroke-width:0.8;" x="272.046" xlink:href="#m04248922df" y="246.122073"/>
      </g>
     </g>
     <g id="text_30">
      <!-- 1.0 -->
      <g transform="translate(249.142875 249.921292)scale(0.1 -0.1)">
       <use xlink:href="#DejaVuSans-49"/>
       <use x="63.623047" xlink:href="#DejaVuSans-46"/>
       <use x="95.410156" xlink:href="#DejaVuSans-48"/>
      </g>
     </g>
    </g>
    <g id="text_31">
     <!-- Precision -->
     <g transform="translate(243.063187 339.675603)rotate(-90)scale(0.1 -0.1)">
      <use xlink:href="#DejaVuSans-80"/>
      <use x="58.552734" xlink:href="#DejaVuSans-114"/>
      <use x="97.416016" xlink:href="#DejaVuSans-101"/>
      <use x="158.939453" xlink:href="#DejaVuSans-99"/>
      <use x="213.919922" xlink:href="#DejaVuSans-105"/>
      <use x="241.703125" xlink:href="#DejaVuSans-115"/>
      <use x="293.802734" xlink:href="#DejaVuSans-105"/>
      <use x="321.585938" xlink:href="#DejaVuSans-111"/>
      <use x="382.767578" xlink:href="#DejaVuSans-110"/>
     </g>
    </g>
   </g>
   <g id="line2d_30">
    <path clip-path="url(#pe1f942d19a)" d="M 373.807268 246.122073 
L 373.52813 247.519063 
L 375.703889 247.519063 
L 375.430445 248.916053 
L 377.713741 248.916053 
L 377.447185 250.313043 
L 379.035031 250.313043 
L 378.772488 251.710034 
L 381.26058 251.710034 
L 381.007365 253.107024 
L 381.867878 253.107024 
L 381.615476 254.504014 
L 383.388792 254.504014 
L 381.576283 264.282945 
L 383.490143 264.282945 
L 383.225182 265.679935 
L 384.214209 265.679935 
L 383.951014 267.076925 
L 384.964846 267.076925 
L 384.166709 271.267896 
L 387.391664 271.267896 
L 386.076662 278.252847 
L 388.423192 278.252847 
L 387.896755 281.046827 
L 389.127438 281.046827 
L 387.469626 289.428768 
L 387.170834 290.825758 
L 388.508806 290.825758 
L 387.914664 293.619739 
L 389.310657 293.619739 
L 387.761627 300.604689 
L 389.265816 300.604689 
L 388.619873 303.39867 
L 390.197635 303.39867 
L 389.550647 306.19265 
L 391.209325 306.19265 
L 389.520372 313.177601 
L 389.150913 314.574591 
L 394.841455 314.574591 
L 393.20536 321.559542 
L 397.640995 321.559542 
L 397.348076 322.956532 
L 399.730861 322.956532 
L 399.467433 324.353522 
L 401.987917 324.353522 
L 400.745939 331.338473 
L 399.534254 336.926434 
L 399.193467 338.323424 
L 402.417832 338.323424 
L 401.189503 343.911385 
L 404.946746 343.911385 
L 403.850884 349.499345 
L 403.185538 352.293326 
L 407.990809 352.293326 
L 407.791774 353.690316 
L 413.165716 353.690316 
L 413.165716 388.61507 
L 413.165716 388.61507 
" style="fill:none;stroke:#000000;stroke-linecap:square;stroke-width:1.5;"/>
   </g>
   <g id="line2d_31">
    <path clip-path="url(#pe1f942d19a)" d="M 273.443225 246.122073 
L 413.165716 388.61507 
" style="fill:none;stroke:#ff0000;stroke-dasharray:3.7,1.6;stroke-dashoffset:0;stroke-opacity:0.5;"/>
   </g>
   <g id="patch_15">
    <path d="M 272.046 390.04 
L 272.046 244.697143 
" style="fill:none;stroke:#000000;stroke-linecap:square;stroke-linejoin:miter;stroke-width:0.8;"/>
   </g>
   <g id="patch_16">
    <path d="M 414.562941 390.04 
L 414.562941 244.697143 
" style="fill:none;stroke:#000000;stroke-linecap:square;stroke-linejoin:miter;stroke-width:0.8;"/>
   </g>
   <g id="patch_17">
    <path d="M 272.046 390.04 
L 414.562941 390.04 
" style="fill:none;stroke:#000000;stroke-linecap:square;stroke-linejoin:miter;stroke-width:0.8;"/>
   </g>
   <g id="patch_18">
    <path d="M 272.046 244.697143 
L 414.562941 244.697143 
" style="fill:none;stroke:#000000;stroke-linecap:square;stroke-linejoin:miter;stroke-width:0.8;"/>
   </g>
   <g id="text_32">
    <!-- d -->
    <defs>
     <path d="M 45.609375 46.6875 
L 45.609375 75.984375 
L 63.1875 75.984375 
L 63.1875 0 
L 45.609375 0 
L 45.609375 7.90625 
Q 42 3.078125 37.640625 0.828125 
Q 33.296875 -1.421875 27.59375 -1.421875 
Q 17.484375 -1.421875 10.984375 6.609375 
Q 4.5 14.65625 4.5 27.296875 
Q 4.5 39.9375 10.984375 47.96875 
Q 17.484375 56 27.59375 56 
Q 33.25 56 37.625 53.734375 
Q 42 51.46875 45.609375 46.6875 
z
M 34.078125 11.28125 
Q 39.703125 11.28125 42.65625 15.375 
Q 45.609375 19.484375 45.609375 27.296875 
Q 45.609375 35.109375 42.65625 39.203125 
Q 39.703125 43.3125 34.078125 43.3125 
Q 28.515625 43.3125 25.5625 39.203125 
Q 22.609375 35.109375 22.609375 27.296875 
Q 22.609375 19.484375 25.5625 15.375 
Q 28.515625 11.28125 34.078125 11.28125 
z
" id="DejaVuSans-Bold-100"/>
    </defs>
    <g transform="translate(217.838418 227.786071)scale(0.16 -0.16)">
     <use xlink:href="#DejaVuSans-Bold-100"/>
    </g>
   </g>
   <g id="legend_3">
    <g id="patch_19">
     <path d="M 276.246 387.04 
L 339.912562 387.04 
Q 341.112562 387.04 341.112562 385.84 
L 341.112562 368.82625 
Q 341.112562 367.62625 339.912562 367.62625 
L 276.246 367.62625 
Q 275.046 367.62625 275.046 368.82625 
L 275.046 385.84 
Q 275.046 387.04 276.246 387.04 
z
" style="fill:#ffffff;opacity:0.8;stroke:#cccccc;stroke-linejoin:miter;"/>
    </g>
    <g id="line2d_32">
     <path d="M 277.446 372.485312 
L 289.446 372.485312 
" style="fill:none;stroke:#000000;stroke-linecap:square;stroke-width:1.5;"/>
    </g>
    <g id="line2d_33"/>
    <g id="text_33">
     <!-- PR-AUC=0.881 -->
     <defs>
      <path d="M 31.78125 34.625 
Q 24.75 34.625 20.71875 30.859375 
Q 16.703125 27.09375 16.703125 20.515625 
Q 16.703125 13.921875 20.71875 10.15625 
Q 24.75 6.390625 31.78125 6.390625 
Q 38.8125 6.390625 42.859375 10.171875 
Q 46.921875 13.96875 46.921875 20.515625 
Q 46.921875 27.09375 42.890625 30.859375 
Q 38.875 34.625 31.78125 34.625 
z
M 21.921875 38.8125 
Q 15.578125 40.375 12.03125 44.71875 
Q 8.5 49.078125 8.5 55.328125 
Q 8.5 64.0625 14.71875 69.140625 
Q 20.953125 74.21875 31.78125 74.21875 
Q 42.671875 74.21875 48.875 69.140625 
Q 55.078125 64.0625 55.078125 55.328125 
Q 55.078125 49.078125 51.53125 44.71875 
Q 48 40.375 41.703125 38.8125 
Q 48.828125 37.15625 52.796875 32.3125 
Q 56.78125 27.484375 56.78125 20.515625 
Q 56.78125 9.90625 50.3125 4.234375 
Q 43.84375 -1.421875 31.78125 -1.421875 
Q 19.734375 -1.421875 13.25 4.234375 
Q 6.78125 9.90625 6.78125 20.515625 
Q 6.78125 27.484375 10.78125 32.3125 
Q 14.796875 37.15625 21.921875 38.8125 
z
M 18.3125 54.390625 
Q 18.3125 48.734375 21.84375 45.5625 
Q 25.390625 42.390625 31.78125 42.390625 
Q 38.140625 42.390625 41.71875 45.5625 
Q 45.3125 48.734375 45.3125 54.390625 
Q 45.3125 60.0625 41.71875 63.234375 
Q 38.140625 66.40625 31.78125 66.40625 
Q 25.390625 66.40625 21.84375 63.234375 
Q 18.3125 60.0625 18.3125 54.390625 
z
" id="DejaVuSans-56"/>
     </defs>
     <g transform="translate(294.246 374.585312)scale(0.06 -0.06)">
      <use xlink:href="#DejaVuSans-80"/>
      <use x="60.302734" xlink:href="#DejaVuSans-82"/>
      <use x="125.785156" xlink:href="#DejaVuSans-45"/>
      <use x="159.619141" xlink:href="#DejaVuSans-65"/>
      <use x="228.027344" xlink:href="#DejaVuSans-85"/>
      <use x="301.220703" xlink:href="#DejaVuSans-67"/>
      <use x="371.044922" xlink:href="#DejaVuSans-61"/>
      <use x="454.833984" xlink:href="#DejaVuSans-48"/>
      <use x="518.457031" xlink:href="#DejaVuSans-46"/>
      <use x="550.244141" xlink:href="#DejaVuSans-56"/>
      <use x="613.867188" xlink:href="#DejaVuSans-56"/>
      <use x="677.490234" xlink:href="#DejaVuSans-49"/>
     </g>
    </g>
    <g id="line2d_34">
     <path d="M 277.446 381.292187 
L 289.446 381.292187 
" style="fill:none;stroke:#ff0000;stroke-dasharray:3.7,1.6;stroke-dashoffset:0;stroke-opacity:0.5;"/>
    </g>
    <g id="line2d_35"/>
    <g id="text_34">
     <!-- Chance -->
     <g transform="translate(294.246 383.392187)scale(0.06 -0.06)">
      <use xlink:href="#DejaVuSans-67"/>
      <use x="69.824219" xlink:href="#DejaVuSans-104"/>
      <use x="133.203125" xlink:href="#DejaVuSans-97"/>
      <use x="194.482422" xlink:href="#DejaVuSans-110"/>
      <use x="257.861328" xlink:href="#DejaVuSans-99"/>
      <use x="312.841797" xlink:href="#DejaVuSans-101"/>
     </g>
    </g>
   </g>
  </g>
 </g>
 <defs>
  <clipPath id="p2a4362391e">
   <rect height="145.342857" width="142.516941" x="272.046" y="34.097143"/>
  </clipPath>
  <clipPath id="pb4b69784a0">
   <rect height="145.342857" width="142.516941" x="60.456" y="244.697143"/>
  </clipPath>
  <clipPath id="pe1f942d19a">
   <rect height="145.342857" width="142.516941" x="272.046" y="244.697143"/>
  </clipPath>
 </defs>
</svg>
